<svg xmlns="http://www.w3.org/2000/svg" width="64" height="64" version="1.0" viewBox="0 0 48 48"><defs><clipPath id="a"><path d="M.488 0h47.02v47.02H.488Zm0 0"/></clipPath><clipPath id="c"><path d="M.488 0h47.02v47.02H.488Zm0 0"/></clipPath><clipPath id="d"><path d="M3.43 0h41.14a2.946 2.946 0 0 1 2.941 2.938v41.144a2.94 2.94 0 0 1-2.94 2.938H3.43a2.94 2.94 0 0 1-2.078-.86c-.551-.55-.864-1.3-.864-2.078V2.938A2.94 2.94 0 0 1 3.43 0m0 0"/></clipPath><clipPath id="f"><path d="M.488 0h47.02v47.02H.488Zm0 0"/></clipPath><clipPath id="g"><path d="M3.43 0h41.14a2.946 2.946 0 0 1 2.941 2.938v41.144a2.94 2.94 0 0 1-2.94 2.938H3.43a2.94 2.94 0 0 1-2.078-.86c-.551-.55-.864-1.3-.864-2.078V2.938A2.94 2.94 0 0 1 3.43 0m0 0"/></clipPath><clipPath id="e"><path d="M0 0h48v48H0z"/></clipPath><clipPath id="h"><path d="M6.734 11H15v7.953H6.734Zm0 0"/></clipPath><clipPath id="i"><path d="M14 4.262h7.426V12H14Zm0 0"/></clipPath><clipPath id="j"><path d="M6.734 4.262h14.692v14.691H6.734Zm0 0"/></clipPath><clipPath id="k"><path d="M6.734 4.262h14.692v14.691H6.734Zm0 0"/></clipPath><clipPath id="b"><path d="M0 0h48v48H0z"/></clipPath></defs><g clip-path="url(#a)"><g clip-path="url(#b)"><g clip-path="url(#c)"><g clip-path="url(#d)"><g clip-path="url(#e)"><g clip-path="url(#f)"><g clip-path="url(#g)"><path fill="#fff24a" d="M.488 0h47.024v47.02H.488Zm0 0"/></g></g></g></g></g><path d="M35.168 21.14c-1.672.133-3.074.735-4.121 1.77-1.074 1.067-1.586 2.367-1.586 4.016 0 2.469 1.012 4.195 3.273 5.562.575.344 1.356.719 2.711 1.305 1.844.789 2.532 1.168 2.97 1.637.538.578.687 1.504.347 2.21a2.4 2.4 0 0 1-.395.524c-.52.523-1.344.805-2.363.805-1.727 0-3.012-.711-4.047-2.239-.145-.203-.27-.37-.289-.37-.04 0-3.406 1.94-3.477 2.007-.043.04-.007.133.164.414 1.344 2.266 3.446 3.59 6.286 3.973.742.101 2.136.098 2.847 0 1.79-.254 3.13-.844 4.168-1.856 1.106-1.062 1.649-2.445 1.649-4.171 0-1.11-.18-1.97-.594-2.825-.281-.582-.566-.976-1.05-1.472-.934-.946-2.141-1.664-4.552-2.7-1.824-.78-2.433-1.117-2.836-1.546-.386-.41-.546-.895-.511-1.497.031-.476.16-.8.453-1.113.422-.457.906-.644 1.66-.64.852 0 1.406.218 1.969.785.199.195.453.511.574.699.137.219.238.336.273.324.118-.05 3.332-2.129 3.332-2.16a8 8 0 0 0-.363-.574c-.426-.637-1.191-1.434-1.715-1.781-.976-.645-2.015-.977-3.386-1.079-.672-.054-.758-.054-1.391-.007M21.398 29.18 21.383 37l-.098.367c-.125.48-.277.77-.543 1.035-.37.371-.847.524-1.644.532-1.137.004-1.817-.48-2.61-1.832-.129-.215-.242-.387-.258-.383-.015.011-.816.492-1.777 1.07l-1.746 1.063.133.265a6.6 6.6 0 0 0 3.812 3.32c1.743.583 3.98.528 5.621-.132 1.97-.793 3.122-2.442 3.43-4.887.024-.246.043-3.012.043-8.211v-7.844h-4.332Zm0 0"/><g clip-path="url(#h)"><path fill="#181515" d="M14.234 12.094c.051.07.145.125.043.234-.386.418-5.183 6.004-5.562 6.27-.52.355-1.2.242-1.598-.25-.379-.47-.355-1.176.102-1.59.699-.64 5.89-5.145 6.117-5.356.074-.07.125-.054.191-.011.274.23.473.425.707.703"/></g><g clip-path="url(#i)"><path fill="#181515" d="M21.309 4.645c-.082.218-.141.312-.262.53-.035.063-.133.184-.192.212-.464.218-.828.605-1.18.965-.714.73-4.378 4.378-4.808 4.765l-.336-.332c.305-.281 3.813-3.812 4.797-4.773.379-.367.695-.774.988-1.215.168-.258.47-.317.754-.422.114-.043.282.164.239.27"/></g><path fill="#181515" d="m14.938 12.582-1.848-1.84c-.024-.027-.024-.066 0-.09l.527-.527c.028-.023.067-.023.09 0l1.848 1.844a.06.06 0 0 1 0 .086l-.528.527c-.027.027-.066.027-.09 0"/><g clip-path="url(#j)"><path fill="#181515" d="M9.688 5.797 8.73 4.84a.25.25 0 0 1 .125-.422 2.49 2.49 0 0 1 2.262.684c.36.359.59.804.684 1.27.117.585.379 1.132.8 1.554l5.153 5.14c.422.422.969.684 1.558.801.465.094.91.32 1.274.684a2.49 2.49 0 0 1 .68 2.258c-.04.195-.282.261-.422.125l-.957-.957a.7.7 0 0 0-.528-.204.7.7 0 0 0-.476.204l-.399.398a.68.68 0 0 0-.207.48.7.7 0 0 0 .207.524l.953.953c.141.14.075.383-.12.422a2.48 2.48 0 0 1-2.262-.68 2.47 2.47 0 0 1-.684-1.27c-.117-.585-.379-1.128-.805-1.55l-5.156-5.149c-.422-.421-.969-.683-1.555-.8a2.5 2.5 0 0 1-1.27-.68 2.49 2.49 0 0 1-.683-2.262c.04-.191.282-.261.422-.12l.957.956a.72.72 0 0 0 1.008 0l.399-.398a.71.71 0 0 0 0-1.004"/></g><path fill="#fff" d="m11.957 8.805 4.914 4.906c.09.09.09.234 0 .324l-.336.336a.23.23 0 0 1-.324 0l-4.914-4.906a.23.23 0 0 1 0-.324l.336-.336c.09-.09.234-.09.324 0"/><path fill="#548dd1" d="m10.5 11.05-.52-.515q-.045-.047-.097-.09a4.2 4.2 0 0 0-.156 1.14c0 .65.144 1.263.398 1.813q.298-.257.578-.503a3.6 3.6 0 0 1-.203-1.844m4.637 4.634-.52-.524a3.4 3.4 0 0 1-.531.043 3.7 3.7 0 0 1-1.3-.238c-.173.2-.345.394-.505.574.551.254 1.16.39 1.805.39.39 0 .777-.05 1.14-.152-.03-.03-.058-.066-.09-.093m2.57-6.504q-.264.27-.527.527c.336.547.527 1.191.527 1.879q0 .276-.039.539l.516.512c.03.035.066.062.101.093a4.3 4.3 0 0 0-.578-3.55m-3.621-1.938c-.395 0-.781.055-1.145.156.032.036.059.067.094.098l.516.516a3.579 3.579 0 0 1 2.414.488c.074-.07.148-.148.223-.219l.308-.308a4.33 4.33 0 0 0-2.41-.73"/><g clip-path="url(#k)"><path fill="#548dd1" d="M8.598 12.457h-.602c-.25-.004-.418-.168-.418-.426v-.898a.403.403 0 0 1 .414-.418h.598c.3-.004.488-.14.566-.434q.029-.117.074-.234a3 3 0 0 0-.492-.149 2 2 0 0 1-.21-.046c-.02.043-.032.09-.048.136h-.507a1.135 1.135 0 0 0-1.121 1.137c-.004.309-.004.61 0 .914 0 .649.472 1.133 1.128 1.149h.5a6 6 0 0 0 .504 1.207l.563-.493a5.5 5.5 0 0 1-.395-1.02c-.074-.273-.265-.421-.554-.425m7.09 4.719q.068-.02.136-.043-.029-.106-.05-.207a3 3 0 0 0-.149-.496c-.09.035-.187.058-.281.086-.239.066-.38.254-.383.527v.05q-.013.281.004.567c0 .098-.043.2-.125.285a.43.43 0 0 1-.285.133h-.016q-.166-.007-.324-.008c-.074 0-.156.004-.23.004h-.352c-.254-.004-.418-.168-.422-.426-.004-.09 0-.187 0-.285v-.308c-.008-.293-.145-.473-.43-.551a5.4 5.4 0 0 1-1.004-.383q-.263.3-.492.563c.38.207.781.37 1.195.492v.277c0 .07-.003.145 0 .215.012.652.493 1.125 1.145 1.133h.488q.051-.002.102-.004c.098 0 .2.004.297.008h.043c.289 0 .582-.125.8-.348.227-.223.348-.52.336-.82v-.024a6 6 0 0 1-.004-.437m4.488-7.188h-.488a6 6 0 0 0-.508-1.218l.097-.094.075-.074q.088-.087.171-.172c.364-.38.442-.871.23-1.293-.183.187-.413.414-.671.672v.003a.6.6 0 0 1-.086.11 5 5 0 0 1-.238.238q-.083.088-.172.176c-.211.215-.242.434-.098.687.23.407.41.836.532 1.278.07.261.265.406.546.414h.602c.254.004.418.168.422.422v.898c-.004.254-.168.422-.418.422h-.602q-.435.007-.554.43c-.024.078-.047.16-.075.238q.23.095.489.148c.074.012.144.032.215.051.02-.047.03-.094.043-.136h.484a1.14 1.14 0 0 0 1.148-1.145v-.906a1.137 1.137 0 0 0-1.144-1.149m-2.113-4.172c-.204 0-.512.063-.813.352q-.105.094-.191.184l-.055.058-.008.004-.008.008q-.032.036-.062.066l-.016.016a6.2 6.2 0 0 0-1.219-.508v-.148q.001-.177-.004-.352a1.13 1.13 0 0 0-1.132-1.125h-.938a1.13 1.13 0 0 0-1.137 1.125c-.003.074 0 .145 0 .215v.285c-.046.016-.09.027-.132.043q.029.105.05.211.05.258.145.492c.086-.031.172-.054.258-.078a.52.52 0 0 0 .406-.523q.005-.172.004-.344c0-.094-.004-.188 0-.281.004-.25.172-.414.414-.414q.234-.005.46-.004c.153 0 .31 0 .462.004.242 0 .406.168.41.414q.005.168.004.332v.246c.004.312.137.496.434.578.457.125.859.293 1.238.512a.63.63 0 0 0 .316.097c.14 0 .278-.062.414-.199.051-.055.106-.105.157-.16.078-.074.152-.156.23-.227a.5.5 0 0 1 .113-.086l.008-.007.672-.672a1.1 1.1 0 0 0-.48-.114"/></g></g></g></svg>