<svg xmlns="http://www.w3.org/2000/svg" xml:space="preserve" viewBox="0 0 500 500"><path d="M0 0h500v500H0z" style="fill:#fae2e9"/><path d="M36.541 284.1c1.66 20.97 3.86 55.18 7.72 62.35 3.87 7.17 42.21 40.27 54.9 59.31 13.76 20.63 13.52 51.86 6.35 68.96-3.88 9.24-8.39 18.71-11.73 25.48h86.86c6.51-19.19 18.55-58.41 16.45-80.37-3.17-33.24-10.62-53.93-29.79-73.93-12.15-12.68-46.9-45.24-46.9-45.24s2.76-33.11 5.52-50.21c2.76-17.11 2.21-24.83-.55-28.14s-6.07-4.97-6.07-4.97 1.65-26.48-3.31-35.31c-4.97-8.82-11.04-8.27-13.24-3.86-2.21 4.42-9.93 33.11-11.04 36.97-1.1 3.86-1.65 8.27-1.65 8.27s3.31-45.79-3.86-68.41c-7.18-22.62-20.42-24.83-23.73-17.1-3.31 7.72-3.31 76.13-3.31 76.13s-4.96-23.17-12.69-37.51c-7.72-14.35-18.21-17.11-20.41-9.93-2.21 7.17 8.83 96.55 10.48 117.51" style="fill:#eda0b5"/><path d="M119.489 217.965c-.212 2.292-.298 4.57-.638 6.853a336 336 0 0 1-1.112 6.915 515 515 0 0 1-2.453 13.276c-1.721 8.717-3.538 17.421-5.384 26.112-.546 2.57-1.018 5.158-1.487 7.743q-.34 1.875-.662 3.754c-.22 1.288-.267 2.72-.916 3.874-.17.302-.698.26-.771-.101-.188-.932-.007-1.774.142-2.703a447 447 0 0 1 1.849-10.705c.82-4.435 1.632-8.865 2.568-13.278 1.842-8.685 3.744-17.36 5.396-26.084a384 384 0 0 0 1.387-7.741c.452-2.682 1.085-5.316 1.576-7.985.051-.281.532-.22.505.07M90.514 221.69c-.298 3.29-.415 6.591-.781 9.881-.32 2.882-.638 5.765-.923 8.651-.286 2.894-.562 5.79-.789 8.689-.241 3.081.017 6.661-1.12 9.574-.091.234-.434.269-.512 0-.87-2.984-.204-6.521.031-9.574q.34-4.45.842-8.887c.336-2.96.705-5.916 1.076-8.872.402-3.201 1.053-6.365 1.485-9.556.053-.389.727-.301.691.094M59.178 213.349c.652 3.774 1.305 7.537 1.818 11.333q.356 2.63.686 5.261c.232 1.855.753 3.841.311 5.685-.057.236-.414.289-.528.069-.84-1.621-.825-3.59-1.034-5.376-.207-1.766-.41-3.532-.619-5.298-.453-3.822-.864-7.654-1.386-11.467-.068-.485.665-.709.752-.207" style="fill:#242021"/><path d="M136.593 317.242c-11.726-10.416-23.332-20.891-33.158-33.181-9.767-12.216-17.187-26.191-27.545-37.945-2.48-2.814-5.093-5.85-8.371-7.755-3.216-1.869-6.71-1.878-9.92-.01-6.943 4.039-7.663 12.779-6.652 19.954 2.287 16.225 10.097 31.247 18.104 45.31 7.511 13.191 17.025 26.284 19.298 41.66.262 1.774.384 3.516.336 5.31-.025.94-1.35.908-1.438 0-.381-3.941-.999-7.826-2.147-11.621-1.149-3.798-2.752-7.454-4.516-11.004-3.585-7.215-7.992-13.977-12.032-20.937-8.382-14.439-16.648-29.741-19.499-46.379-1.241-7.245-1.366-15.499 4.021-21.197 2.249-2.379 5.184-3.975 8.468-4.254 3.46-.294 6.683 1.3 9.329 3.391 3.061 2.419 5.685 5.445 8.176 8.43 2.558 3.064 4.951 6.264 7.256 9.523 4.706 6.654 9.017 13.577 13.763 20.204 9.382 13.1 20.809 24.701 32.566 35.663 1.518 1.415 2.966 2.899 4.492 4.308.355.329-.172.849-.531.53" style="fill:#242021"/><path d="M49.14 251.869a.23.23 0 0 0 .092-.18c.023-.458.037-.915.054-1.372.559 1.248 1.296 2.436 1.956 3.618.818 1.466 1.757 2.837 2.776 4.169 2.031 2.654 4.52 4.95 7.912 5.615 3.565.699 7.198-1.27 9.185-4.186 2.176-3.192 2.72-7.308 1.906-11.041-.805-3.691-2.526-7.012-4.2-10.358l.34.166c.301.146.59.306.883.462-.036.124-.005.274.113.345.211.126.443.227.675.325 1.561 2.511 2.66 5.461 3.394 8.184 1.077 3.998 1.016 8.532-1.05 12.216-1.852 3.303-5.403 5.716-9.206 5.966-4 .264-7.579-2.111-10.015-5.098-1.28-1.569-2.362-3.282-3.327-5.06a18 18 0 0 1-1.494-3.689q0-.041.006-.082M80.627 280.511c-.451.067-.909.252-1.339.408s-.86.297-1.281.476c-.851.363-1.665.741-2.449 1.237a12.3 12.3 0 0 0-2.107 1.654c-.629.624-1.253 1.461-2.047 1.868-.272.14-.646-.028-.635-.364.034-.988.788-1.949 1.461-2.625a12.8 12.8 0 0 1 2.433-1.924c.843-.508 1.817-.957 2.772-1.202a9 9 0 0 1 1.558-.266c.52-.04 1.022.037 1.537.032.393-.004.507.645.097.706M84.902 290.219c-1.601.377-3.183 1.062-4.595 1.904-.706.421-1.375.892-2.042 1.37-.702.504-1.383.945-2.151 1.328-.282.14-.692-.096-.574-.441a5.2 5.2 0 0 1 1.494-2.253 10.4 10.4 0 0 1 2.358-1.569c.821-.4 1.681-.762 2.574-.962a14.7 14.7 0 0 1 2.806-.329c.543-.014.665.826.13.952M55.74 204.686c-2.085-.35-4.396-.165-6.485.112-2.055.273-4.058.931-6.12 1.105-.288.024-.486-.414-.249-.6 1.741-1.362 4.125-1.805 6.284-1.967 2.335-.176 4.477.23 6.744.717.418.09.235.701-.174.633M89.975 187.857c-1.254-.291-2.404-1.017-3.603-1.479a35 35 0 0 0-4.072-1.282 43 43 0 0 0-4.103-.787c-1.348-.2-2.726-.296-4.048-.627-.307-.077-.297-.529 0-.611 2.717-.753 5.883-.122 8.55.576 1.402.367 2.76.839 4.083 1.432 1.221.548 2.658 1.169 3.502 2.249.187.241.021.606-.309.529M88.277 233.279c-1.598-.547-3.235-.897-4.902-1.156-1.635-.254-3.284-.319-4.918-.593-.33-.056-.278-.531 0-.618 1.692-.525 3.374-.483 5.117-.26 1.737.223 3.429.7 5.061 1.331.791.307.473 1.58-.358 1.296M27.17 165.319c.725 1.584.902 3.498 1.1 5.215.213 1.848.209 3.703.225 5.56.029 3.448.223 7.538-1.348 10.722-.084.17-.332.077-.339-.092-.07-1.803.331-3.668.508-5.461.17-1.714.376-3.445.37-5.17s-.193-3.455-.398-5.166c-.215-1.794-.702-3.64-.719-5.447-.003-.3.463-.462.601-.161M63.67 136.432c.699 3.284.644 6.651.549 9.995-.051 1.776-.233 3.559-.71 5.276-.404 1.452-1.062 3.412-2.388 4.271-.245.158-.555-.103-.482-.371.198-.724.647-1.356.945-2.042.347-.799.63-1.634.842-2.479.432-1.724.591-3.512.645-5.284.095-3.089.248-6.197-.034-9.28-.033-.362.558-.44.633-.086M104.439 176.211c.065 2.391-.208 4.778-1.029 7.035-.391 1.076-.848 2.15-1.428 3.138-.529.9-1.153 1.824-2.112 2.303-.132.066-.25-.065-.192-.192.423-.938.98-1.815 1.44-2.737.49-.983.926-1.98 1.276-3.022.709-2.112 1.241-4.301 1.424-6.525.032-.394.61-.405.621 0M118.715 222.62c-1.969-2.151-4.18-4.138-6.584-5.792a34 34 0 0 0-3.681-2.209c-1.244-.645-2.609-1.156-3.683-2.077-.192-.165-.036-.499.204-.493 1.437.034 2.788.734 4.031 1.397a35 35 0 0 1 3.843 2.39c2.453 1.758 4.625 3.791 6.488 6.166.338.43-.229 1.044-.618.618M113.062 251.866c-1.539-1.14-3.239-2.033-4.968-2.846a27 27 0 0 0-2.599-1.056c-.897-.312-1.813-.582-2.652-1.034-.243-.131-.215-.58.082-.628 1.968-.318 4.038.495 5.801 1.299 1.846.842 3.447 2.152 4.847 3.604.319.329-.112.956-.511.661M124.711 258.92c-.4-.32-.8-.65-1.21-.95a25 25 0 0 0-2.54-1.6c-1.72-.96-3.57-1.71-5.36-2.52-.29-.13-.13-.55.15-.56 2.16-.06 4.17.61 6.04 1.66.91.51 1.75 1.14 2.56 1.8.19.15.39.32.58.5zM121.871 284.65c-.57-.35-1.17-.67-1.77-.97-1.16-.57-2.43-.92-3.52-1.59-.38-.23-.2-.75.21-.78 1.38-.12 2.77.49 3.99 1.08.43.2.84.44 1.24.69zM191.371 429.552c-4.74 3.96-11.173 6.376-17.371 5.232-.259-.048-.186-.437.06-.445 5.982-.19 11.876-1.662 16.603-5.494.494-.4 1.205.292.708.707M107.92 464.46c.324-2.285.972-4.526 1.356-6.805.403-2.392.666-4.804.802-7.225.26-4.63.115-9.29-.497-13.888-.621-4.665-1.732-9.261-3.088-13.763-1.359-4.509-3.397-8.696-5.611-12.837-1.207-2.257-2.642-4.4-4.153-6.465-1.57-2.144-3.521-4.085-4.859-6.386-.132-.227.14-.53.374-.374 1.94 1.297 3.39 3.233 4.8 5.061a69 69 0 0 1 4.034 5.823c2.55 4.122 4.626 8.4 6.37 12.923 3.499 9.075 5.086 18.834 4.498 28.563a72 72 0 0 1-.917 7.861c-.462 2.668-.958 5.467-2.065 7.953-.289.643-1.126.136-1.044-.441M40.539 168.768c1.869 2.413 3.803 4.724 5.372 7.357a43 43 0 0 1 2.058 3.902c.634 1.372 1.156 2.775 1.918 4.082.134.23.432.063.4-.169-.417-2.963-2.128-5.859-3.676-8.375-1.579-2.568-3.425-5.173-5.718-7.151-.25-.215-.548.103-.354.354M79.884 142.805c1.973 3.267 3.887 6.502 5.26 10.078a47 47 0 0 1 1.641 5.137c.471 1.83.613 3.831 1.339 5.58.103.249.427.207.46-.062.233-1.85-.366-3.825-.825-5.6a47 47 0 0 0-1.848-5.638c-1.394-3.493-3.137-6.962-5.513-9.893-.236-.292-.703.084-.514.398M88.444 167.239l.157.98c.026.165.068.32.115.48.05.171.116.321.2.478.089.166.375.137.414-.054.035-.174.057-.337.056-.514a4 4 0 0 0-.028-.492l-.131-.984a.47.47 0 0 0-.117-.282.38.38 0 0 0-.335-.11c-.255.035-.369.261-.331.498M174.916 356.057c3.152 3.99 5.858 8.318 8.168 12.848a88 88 0 0 1 3.145 6.93c.875 2.163 1.413 4.788 2.818 6.681.171.23.541.163.553-.15.091-2.405-1.208-4.93-2.113-7.101a73 73 0 0 0-3.363-6.968c-2.476-4.526-5.431-8.762-8.689-12.759-.3-.369-.807.154-.519.519M34.862 271.448c.56 6.323 1.216 12.636 1.755 18.961q.399 4.685.738 9.374c.113 1.564.232 3.127.343 4.691.106 1.501.05 3.088.576 4.512.08.216.421.258.482 0 .349-1.473.102-3.016.007-4.512-.099-1.564-.2-3.128-.318-4.691a721 721 0 0 0-.787-9.621c-.556-6.285-1.17-12.566-2.029-18.818-.059-.432-.806-.335-.767.104M38.526 314.353a8.9 8.9 0 0 0 .054 3.049c.188.972.524 2 1.227 2.722.155.159.446-.003.379-.22-.272-.876-.666-1.706-.859-2.61a7.8 7.8 0 0 1-.093-2.745c.029-.198-.049-.392-.256-.452-.173-.05-.422.061-.452.256" style="fill:#242021"/><path d="M120.925 301.345c.216-2.765.215-5.54.451-8.307.118-1.381.248-2.76.426-4.135.088-.681.194-1.36.288-2.041.101-.73-.01-1.336-.097-2.067-.023-.194-.298-.324-.408-.111-.32.624-.628 1.136-.765 1.827-.135.683-.211 1.383-.301 2.074a76 76 0 0 0-.432 4.133c-.212 2.832-.339 5.803.025 8.626.066.511.771.534.813.001M122.54 281.897c.024-.281-.015-.563-.038-.844-.023-.289-.102-.574-.164-.857-.036-.164-.296-.164-.331 0-.062.283-.141.568-.164.857-.023.281-.062.563-.038.844.016.191.157.376.367.367.214-.01.35-.162.368-.367" style="fill:#242021"/><path d="M459.458 284.1c-1.66 20.97-3.86 55.18-7.72 62.35-3.87 7.17-42.21 40.27-54.9 59.31-13.76 20.63-13.52 51.86-6.35 68.96 3.88 9.24 8.39 18.71 11.73 25.48h-86.86c-6.51-19.19-18.55-58.41-16.45-80.37 3.17-33.24 10.62-53.93 29.79-73.93 12.15-12.68 46.9-45.24 46.9-45.24s-2.76-33.11-5.52-50.21c-2.76-17.11-2.21-24.83.55-28.14s6.07-4.97 6.07-4.97-1.65-26.48 3.31-35.31c4.97-8.82 11.04-8.27 13.24-3.86 2.21 4.42 9.93 33.11 11.04 36.97 1.1 3.86 1.65 8.27 1.65 8.27s-3.31-45.79 3.86-68.41c7.18-22.62 20.42-24.83 23.73-17.1 3.31 7.72 3.31 76.13 3.31 76.13s4.96-23.17 12.69-37.51c7.72-14.35 18.21-17.11 20.41-9.93 2.21 7.17-8.83 96.55-10.48 117.51" style="fill:#eda0b5"/><path d="M376.511 217.965c.212 2.292.298 4.57.638 6.853a336 336 0 0 0 1.112 6.915 515 515 0 0 0 2.453 13.276c1.721 8.717 3.538 17.421 5.384 26.112.546 2.57 1.018 5.158 1.487 7.743q.34 1.875.662 3.754c.221 1.288.267 2.72.916 3.874.17.302.698.26.771-.101.188-.932.007-1.774-.142-2.703a447 447 0 0 0-1.849-10.705c-.82-4.435-1.632-8.865-2.568-13.278-1.842-8.685-3.744-17.36-5.396-26.084a384 384 0 0 1-1.387-7.741c-.452-2.682-1.085-5.316-1.576-7.985-.051-.281-.532-.22-.505.07M405.486 221.69c.298 3.29.415 6.591.781 9.881.32 2.882.638 5.765.923 8.651.286 2.894.562 5.79.789 8.689.241 3.081-.017 6.661 1.12 9.574.091.234.434.269.512 0 .87-2.984.204-6.521-.031-9.574a247 247 0 0 0-.842-8.887c-.336-2.96-.705-5.916-1.076-8.872-.402-3.201-1.053-6.365-1.485-9.556-.053-.389-.727-.301-.691.094M436.822 213.349c-.651 3.774-1.304 7.537-1.818 11.333a552 552 0 0 0-.686 5.261c-.232 1.855-.753 3.841-.311 5.685.056.236.414.289.528.069.84-1.621.825-3.59 1.034-5.376.207-1.766.41-3.532.619-5.298.453-3.822.864-7.654 1.386-11.467.067-.485-.666-.709-.752-.207" style="fill:#242021"/><path d="M359.407 317.242c11.726-10.416 23.332-20.891 33.158-33.181 9.767-12.216 17.187-26.191 27.545-37.945 2.48-2.814 5.093-5.85 8.371-7.755 3.216-1.869 6.71-1.878 9.92-.01 6.943 4.039 7.663 12.779 6.652 19.954-2.287 16.225-10.097 31.247-18.104 45.31-7.511 13.191-17.025 26.284-19.298 41.66a30.4 30.4 0 0 0-.336 5.31c.025.94 1.35.908 1.438 0 .381-3.941.999-7.826 2.147-11.621 1.149-3.798 2.752-7.454 4.516-11.004 3.585-7.215 7.992-13.977 12.032-20.937 8.382-14.439 16.648-29.741 19.499-46.379 1.241-7.245 1.366-15.499-4.021-21.197-2.249-2.379-5.184-3.975-8.468-4.254-3.46-.294-6.683 1.3-9.329 3.391-3.061 2.419-5.685 5.445-8.176 8.43-2.558 3.064-4.951 6.264-7.255 9.523-4.706 6.654-9.017 13.577-13.763 20.204-9.382 13.1-20.809 24.701-32.566 35.663-1.518 1.415-2.966 2.899-4.492 4.308-.357.329.171.849.53.53" style="fill:#242021"/><path d="M446.86 251.869a.23.23 0 0 1-.092-.18c-.023-.458-.038-.915-.054-1.372-.559 1.248-1.296 2.436-1.956 3.618-.818 1.466-1.757 2.837-2.776 4.169-2.031 2.654-4.52 4.95-7.912 5.615-3.565.699-7.198-1.27-9.185-4.186-2.176-3.192-2.72-7.308-1.906-11.041.805-3.691 2.526-7.012 4.2-10.358l-.34.166c-.301.146-.59.306-.883.462.036.124.005.274-.113.345a5.4 5.4 0 0 1-.675.325c-1.561 2.511-2.66 5.461-3.394 8.184-1.077 3.998-1.016 8.532 1.05 12.216 1.852 3.303 5.403 5.716 9.206 5.966 4 .264 7.579-2.111 10.015-5.098 1.28-1.569 2.363-3.282 3.328-5.06a18 18 0 0 0 1.494-3.689zM415.373 280.511c.451.067.909.252 1.339.408s.86.297 1.281.476c.851.363 1.665.741 2.449 1.237a12.3 12.3 0 0 1 2.107 1.654c.629.624 1.253 1.461 2.047 1.868.272.14.647-.028.635-.364-.034-.988-.788-1.949-1.461-2.625a12.7 12.7 0 0 0-2.433-1.924c-.843-.508-1.817-.957-2.772-1.202a9 9 0 0 0-1.559-.266c-.52-.04-1.022.037-1.537.032-.393-.004-.506.645-.096.706M411.097 290.219c1.601.377 3.183 1.062 4.595 1.904.706.421 1.375.892 2.042 1.37.702.504 1.383.945 2.151 1.328.282.14.692-.096.574-.441a5.2 5.2 0 0 0-1.495-2.253 10.4 10.4 0 0 0-2.358-1.569c-.821-.4-1.681-.762-2.574-.962a14.7 14.7 0 0 0-2.806-.329c-.542-.014-.664.826-.129.952M440.26 204.686c2.085-.35 4.396-.165 6.485.112 2.055.273 4.058.931 6.12 1.105.288.024.486-.414.249-.6-1.741-1.362-4.125-1.805-6.284-1.967-2.335-.176-4.477.23-6.744.717-.418.09-.236.701.174.633M406.025 187.857c1.254-.291 2.404-1.017 3.603-1.479a35 35 0 0 1 4.073-1.282 43 43 0 0 1 4.103-.787c1.348-.2 2.726-.296 4.048-.627.307-.077.297-.529 0-.611-2.717-.753-5.883-.122-8.55.576-1.402.367-2.76.839-4.083 1.432-1.221.548-2.658 1.169-3.501 2.249-.19.241-.024.606.307.529M407.722 233.279c1.598-.547 3.235-.897 4.902-1.156 1.635-.254 3.284-.319 4.918-.593.33-.056.278-.531 0-.618-1.692-.525-3.374-.483-5.117-.26-1.737.223-3.429.7-5.061 1.331-.79.307-.472 1.58.358 1.296M468.83 165.319c-.725 1.584-.902 3.498-1.1 5.215-.213 1.848-.209 3.703-.225 5.56-.029 3.448-.223 7.538 1.348 10.722.084.17.332.077.339-.092.07-1.803-.331-3.668-.508-5.461-.169-1.714-.376-3.445-.37-5.17s.193-3.455.398-5.166c.215-1.794.702-3.64.718-5.447.003-.3-.463-.462-.6-.161M432.33 136.432c-.699 3.284-.644 6.651-.549 9.995.051 1.776.233 3.559.71 5.276.404 1.452 1.061 3.412 2.388 4.271.245.158.555-.103.482-.371-.198-.724-.647-1.356-.945-2.042a16 16 0 0 1-.842-2.479c-.432-1.724-.591-3.512-.645-5.284-.095-3.089-.248-6.197.034-9.28.033-.362-.558-.44-.633-.086M391.561 176.211c-.066 2.391.208 4.778 1.028 7.035.391 1.076.848 2.15 1.429 3.138.529.9 1.153 1.824 2.112 2.303.132.066.25-.065.192-.192-.423-.938-.981-1.815-1.44-2.737-.49-.983-.926-1.98-1.276-3.022-.709-2.112-1.241-4.301-1.424-6.525-.033-.394-.61-.405-.621 0M377.285 222.62c1.969-2.151 4.18-4.138 6.583-5.792a34 34 0 0 1 3.681-2.209c1.244-.645 2.609-1.156 3.683-2.077.192-.165.035-.499-.204-.493-1.437.034-2.789.734-4.03 1.397a35 35 0 0 0-3.844 2.39c-2.453 1.758-4.625 3.791-6.488 6.166-.337.43.23 1.044.619.618M382.937 251.866c1.539-1.14 3.239-2.033 4.968-2.846a27 27 0 0 1 2.599-1.056c.897-.312 1.813-.582 2.652-1.034.243-.131.215-.58-.082-.628-1.968-.318-4.038.495-5.801 1.299-1.846.842-3.447 2.152-4.847 3.604-.318.329.113.956.511.661M371.068 257.25c.19-.18.39-.35.58-.5.81-.66 1.65-1.29 2.56-1.8 1.87-1.05 3.88-1.72 6.04-1.66.28.01.44.43.15.56-1.79.81-3.64 1.56-5.36 2.52-.88.49-1.73 1.01-2.54 1.6-.41.3-.81.63-1.21.95zM373.978 283.08c.4-.25.81-.49 1.24-.69 1.22-.59 2.61-1.2 3.99-1.08.41.03.59.55.21.78-1.09.67-2.36 1.02-3.52 1.59-.6.3-1.2.62-1.77.97zM304.629 429.552c4.74 3.96 11.173 6.376 17.371 5.232.259-.048.186-.437-.06-.445-5.982-.19-11.876-1.662-16.603-5.494-.495-.4-1.205.292-.708.707M388.08 464.46c-.324-2.285-.972-4.526-1.356-6.805a66 66 0 0 1-.802-7.225c-.26-4.63-.115-9.29.497-13.888.621-4.665 1.732-9.261 3.088-13.763 1.359-4.509 3.397-8.696 5.611-12.837 1.207-2.257 2.642-4.4 4.153-6.465 1.57-2.144 3.521-4.085 4.859-6.386.132-.227-.14-.53-.374-.374-1.94 1.297-3.39 3.233-4.8 5.061a69 69 0 0 0-4.033 5.823c-2.55 4.122-4.626 8.4-6.37 12.923-3.499 9.075-5.086 18.834-4.498 28.563a71 71 0 0 0 .918 7.861c.461 2.668.958 5.467 2.065 7.953.287.643 1.124.136 1.042-.441M455.461 168.768c-1.869 2.413-3.803 4.724-5.372 7.357a43 43 0 0 0-2.058 3.902c-.634 1.372-1.156 2.775-1.918 4.082-.134.23-.432.063-.4-.169.417-2.963 2.128-5.859 3.676-8.375 1.579-2.568 3.425-5.173 5.718-7.151.249-.215.548.103.354.354M416.116 142.805c-1.973 3.267-3.888 6.502-5.261 10.078a47 47 0 0 0-1.641 5.137c-.471 1.83-.613 3.831-1.339 5.58-.103.249-.427.207-.46-.062-.233-1.85.366-3.825.825-5.6a47 47 0 0 1 1.848-5.638c1.395-3.493 3.138-6.962 5.513-9.893.236-.292.704.084.515.398M407.556 167.239l-.157.98c-.026.165-.068.32-.115.48a2.4 2.4 0 0 1-.2.478c-.089.166-.375.137-.414-.054a2.5 2.5 0 0 1-.056-.514c.001-.167.006-.327.028-.492l.132-.984a.47.47 0 0 1 .117-.282.38.38 0 0 1 .335-.11c.253.035.368.261.33.498M321.084 356.057c-3.152 3.99-5.858 8.318-8.168 12.848a87 87 0 0 0-3.145 6.93c-.876 2.163-1.413 4.788-2.818 6.681-.171.23-.541.163-.553-.15-.091-2.405 1.208-4.93 2.113-7.101a73 73 0 0 1 3.364-6.968c2.476-4.526 5.431-8.762 8.689-12.759.299-.369.806.154.518.519M461.138 271.448c-.56 6.323-1.216 12.636-1.755 18.961a735 735 0 0 0-.738 9.374c-.113 1.564-.232 3.127-.343 4.691-.106 1.501-.049 3.088-.576 4.512-.08.216-.421.258-.482 0-.349-1.473-.102-3.016-.007-4.512.099-1.564.2-3.128.317-4.691q.361-4.813.787-9.621c.557-6.285 1.17-12.566 2.029-18.818.06-.432.807-.335.768.104M457.473 314.353a8.9 8.9 0 0 1-.054 3.049c-.188.972-.524 2-1.227 2.722-.155.159-.446-.003-.379-.22.272-.876.667-1.706.859-2.61a7.8 7.8 0 0 0 .093-2.745c-.029-.198.049-.392.257-.452.173-.05.421.061.451.256" style="fill:#242021"/><path d="M375.075 301.345c-.215-2.765-.215-5.54-.451-8.307a96 96 0 0 0-.426-4.135c-.088-.681-.194-1.36-.288-2.041-.101-.73.01-1.336.097-2.067.023-.194.298-.324.408-.111.32.624.628 1.136.765 1.827.135.683.211 1.383.301 2.074.179 1.373.329 2.752.432 4.133.212 2.832.339 5.803-.025 8.626-.067.511-.772.534-.813.001M373.46 281.897c-.024-.281.015-.563.038-.844.023-.289.102-.574.164-.857.036-.164.296-.164.332 0 .062.283.141.568.164.857.023.281.062.563.038.844-.016.191-.157.376-.367.367-.215-.01-.352-.162-.369-.367" style="fill:#242021"/><path d="M82.931 94.724s21.379-13.655 24.138-14.207 8.69 9.655 8.138 10.897c-.552 1.241-11.448 7.035-11.448 7.862s2.207 3.172 2.207 3.172 10.207-5.793 11.034-5.104c.828.69 5.793 8.552 5.655 9.241s-10.207 6.483-10.345 7.586 9.379 13.655 8.965 14.483-13.379 8.69-13.931 8.552-25.792-37.93-24.413-42.482" style="fill:#d31145"/><path d="M82.854 97.461c2.228 3.576 3.997 7.333 5.78 11.142 1.864 3.981 4.057 7.87 6.337 11.627 2.257 3.718 4.566 7.383 7.096 10.922 1.317 1.842 2.72 3.603 4.075 5.413.328.438.645 1.045 1.191 1.223.7.227 1.502-.325 2.104-.61 2.261-1.07 4.431-2.371 6.552-3.696 2.168-1.354 4.49-2.573 6.349-4.342.408-.389-.011-1.211-.578-.992-1.958.757-3.645 1.946-5.405 3.076a183 183 0 0 0-5.256 3.509c-.764.528-1.457 1.203-2.231 1.708-.408.266-.296.291-.882.361-.673.08-.554-.019-.875-.533-.286-.458-.603-.902-.875-1.369-1.052-1.808-2.185-3.559-3.331-5.312-4.495-6.874-9.224-13.611-13.034-20.901-2.023-3.872-3.634-8.288-6.563-11.574-.218-.248-.627.07-.454.348M112.025 114.133c1.063-.051 2.076-.997 2.93-1.562 1.043-.691 2.086-1.379 3.123-2.078a307 307 0 0 1 3.033-2.02c.912-.6 2.082-1.174 2.476-2.242.062-.167-.095-.317-.249-.326-1.125-.071-2.139.809-3.032 1.41a314 314 0 0 0-3.104 2.117 117 117 0 0 0-2.965 2.131c-.833.615-2.053 1.256-2.454 2.254-.059.148.092.323.242.316M104.114 99.8c.415-.234.721-.627 1.074-.944.411-.369.811-.747 1.26-1.072a84 84 0 0 1 2.818-1.979 59 59 0 0 1 2.887-1.826c1.008-.589 2.181-.981 3.07-1.76.357-.313-.02-.971-.471-.81-1.117.399-2.019 1.249-3 1.884a108 108 0 0 1-3.166 1.983c-1 .599-1.983 1.214-2.96 1.849-.802.521-1.909 1.176-2.188 2.156-.113.391.331.714.676.519" style="fill:#242021"/><path d="M173.294 102.218c-.386-1.175-.822-2.318-1.384-3.422a30.5 30.5 0 0 0-4.423-6.433c-1.755-1.964-3.736-3.833-5.964-5.253-1.135-.723-2.437-1.368-3.777-1.679.99-1.518 1.624-3.317 1.947-5.044.675-3.609.433-8.022-1.959-10.987-2.335-2.896-6.33-3.647-9.861-3.596-4.467.064-8.951 1.102-13.18 2.484-4.891 1.598-10.012 3.614-14.403 6.323-.243.15-.311.371-.268.571a.4.4 0 0 0 .019.162c2.767 8.498 5.533 16.994 8.405 25.457 1.358 4.002 2.642 8.04 4.175 11.98a64 64 0 0 0 2.418 5.475c.504 1.004 1.197 3.115 2.631 2.967 1.035-.107 2.215-.782 3.19-1.135 1.136-.41 2.243-.895 3.357-1.361 2.212-.925 4.466-1.812 6.609-2.889.325-.163.463-.671.255-.973-1.869-2.708-3.229-5.922-4.438-8.97a59 59 0 0 1-1.587-4.482c-.431-1.408-.741-2.861-1.206-4.258 2.802-2.96 7.541-.527 9.625 2.235 1.297 1.719 2.194 3.734 2.919 5.751.748 2.081 1.823 4.32 2.19 6.494.035.207.277.296.457.259 2.578-.527 5.021-1.621 7.46-2.579 1.367-.537 2.758-1.011 4.127-1.545 1.002-.39 2.99-.793 3.311-1.982.327-1.2-.279-2.457-.645-3.57M146.139 87.45c-1.195 1.9-2.961 3.055-4.927 4.042-.234.117-.539.067-.674-.177-1.191-2.151-2.22-4.361-3.176-6.627-.626-1.484-1.26-2.966-1.775-4.493-.362-1.071-1.354-2.707.175-3.314 1.993-.791 5.049-.417 7.025.258 2.096.716 3.846 2.207 4.394 4.417.5 2.015.053 4.152-1.042 5.894" style="fill:#d31145"/><path d="M119.663 75.506c2.648 8.318 5.59 16.544 8.463 24.787 1.399 4.014 2.841 8.022 4.493 11.94.791 1.877 1.664 3.725 2.548 5.561.554 1.151 1.089 3.223 2.611 3.385 1.027.109 2.273-.476 3.204-.842 1.024-.402 2.02-.875 3.022-1.326 2.135-.96 4.672-1.817 6.509-3.283.6-.479-.071-1.294-.684-1.175-1.18.229-2.308.841-3.399 1.333a195 195 0 0 0-3.568 1.656c-1.194.567-2.382 1.177-3.617 1.65-.298.114-1.3.63-1.61.479-.278-.136-.577-1.258-.704-1.544-2.049-4.619-3.919-9.321-5.758-14.028-3.729-9.543-6.922-19.284-10.62-28.838-.21-.541-1.073-.331-.89.245M144.193 97.392c.41-.083.758-.344 1.142-.508.45-.193.93-.329 1.417-.391a5.8 5.8 0 0 1 2.529.264c1.814.598 3.288 1.899 4.372 3.445 1.196 1.705 1.993 3.713 2.767 5.635.42 1.045.742 2.145 1.1 3.213.279.832.483 2.075 1.315 2.536.141.078.276-.001.333-.135.438-1.039-.45-2.568-.78-3.552a94 94 0 0 1-1.107-3.534c-.625-2.142-1.725-4.318-3.166-6.024-1.31-1.551-3.082-2.819-5.121-3.134a7.5 7.5 0 0 0-2.861.088c-.833.196-2.047.619-2.443 1.442-.172.359.11.735.503.655M157.811 85.606c.758-.595 1.187-1.512 1.562-2.385.394-.918.702-1.874.907-2.852.199-.949.332-1.932.288-2.903-.021-.479-.129-.949-.196-1.422-.071-.494-.149-.851-.476-1.234-.128-.149-.348-.05-.405.107-.158.441-.113.797-.09 1.259s-.034.917-.055 1.377c-.04.894-.099 1.783-.274 2.663s-.433 1.744-.785 2.57c-.353.83-.851 1.59-1.104 2.456-.114.392.355.578.628.364M160.114 73.07c-.037-.369-.101-.739-.28-1.068a1.6 1.6 0 0 0-.313-.417c-.071-.065-.147-.14-.232-.184a.8.8 0 0 0-.333-.073c-.149-.01-.293.114-.331.252l-.022.074a.6.6 0 0 0-.008.318q.026.12.044.241l-.021-.152c.025.189.068.384.123.568q.066.219.097.444l-.023-.17q.01.083.017.167a.68.68 0 0 0 .188.453.65.65 0 0 0 .453.188.65.65 0 0 0 .453-.188c.109-.118.205-.287.188-.453M136.077 77.061c3.629-.559 7.969-.111 10.211 3.171 1.065 1.559 1.134 3.393.472 5.134-.329.865-.836 1.658-1.379 2.403-.523.718-1.295 1.38-1.568 2.238-.066.209.143.379.336.336.961-.213 1.768-1.17 2.354-1.919.692-.885 1.235-1.857 1.563-2.934.597-1.96.44-4.156-.694-5.892-1.048-1.605-2.731-2.638-4.549-3.152-2.31-.653-4.577-.364-6.876.148-.309.069-.171.514.13.467" style="fill:#242021"/><path d="M213.934 98.603c-1.13-4.098-1.674-8.306-2.544-12.458-.067-.32-.371-.468-.66-.503-3.647-.442-7.115-.092-10.71.616-1.714.338-3.418.723-5.13 1.071-.456-1.859-.912-3.713-1.338-5.575.618-.084 1.236-.233 1.814-.351 1.271-.261 2.543-.519 3.814-.783.844-.175 1.978-.23 2.688-.775.757-.581.495-1.468.282-2.26-.32-1.187-.422-2.422-.69-3.623-.19-.85-.221-2.323-.986-2.895-.761-.569-1.948-.043-2.752.152-1.198.29-2.395.587-3.592.881-.742.182-1.486.35-2.232.514a127 127 0 0 1-.729-6.166c2.357-.429 4.767-.71 7.141-.977 2.501-.282 5.015-.671 7.526-.835.366-.024.778-.319.736-.736-.44-4.371-.909-8.744-1.354-13.117-.049-.482-.407-.763-.889-.677l-16.456 2.925c-5.475.973-10.998 1.811-16.419 3.059a.46.46 0 0 0-.192.098c-.257-.021-.513.135-.511.466.015 1.827.944 3.806 1.453 5.556a209 209 0 0 1 1.562 5.668c1.011 3.884 1.91 7.81 2.75 11.735 1.691 7.911 2.952 15.917 3.976 23.94.09.708.917.918 1.333.595 5.18-.935 10.388-1.722 15.596-2.479 5.296-.77 10.662-1.18 15.936-2.05.441-.073.685-.622.577-1.016" style="fill:#d31145"/><path d="M170.506 57.438c.962 3.833 2.297 7.563 3.301 11.39s1.886 7.706 2.562 11.606c.665 3.837 1.254 7.694 1.883 11.538.327 1.999.593 4.011.865 6.018.229 1.69.312 4.047 1.313 5.463.12.169.358.14.428-.056.564-1.563.065-3.743-.165-5.361-.285-2.006-.577-4.011-.866-6.016-.58-4.024-1.239-7.986-2.09-11.962-.846-3.95-1.711-7.889-2.795-11.783-1.048-3.766-2.134-7.569-3.937-11.047-.145-.282-.573-.084-.499.21M193.827 82.311c1.882.068 3.69-.463 5.495-.943.869-.231 1.858-.437 2.636-.895.672-.395 1.464-1.176.981-2.002-.179-.307-.612-.289-.795 0-.168.265-.281.551-.591.679s-.698.159-1.021.252q-1.151.331-2.296.679c-1.519.461-3.051.809-4.52 1.416-.412.171-.386.796.111.814M191.318 66.966c1.591.117 3.277-.232 4.86-.397q2.278-.237 4.555-.477c.745-.079 6.965-.217 6.208-2.018-.102-.242-.322-.319-.571-.28-.239.037-.437.228-.647.329a3.1 3.1 0 0 1-.87.249c-1.458.236-2.955.334-4.424.5q-2.278.258-4.555.513c-1.535.172-3.198.191-4.685.629-.541.16-.407.913.129.952M182.47 104.623c4.795-.961 9.728-1.315 14.592-1.76 2.27-.207 4.536-.454 6.793-.769 2.033-.284 4.573-.464 6.208-1.838.152-.128.068-.402-.117-.444-2.012-.457-4.32.28-6.314.592-2.494.391-5.004.669-7.51.968-4.693.561-9.307 1.186-13.872 2.452-.518.144-.298.903.22.799M212.202 100.305c.217-.055.443-.098.645-.198.103-.051.224-.1.305-.183a5 5 0 0 0 .155-.17c.128-.146.116-.372-.061-.477a5 5 0 0 0-.191-.107c-.109-.058-.222-.067-.341-.084a1.8 1.8 0 0 0-.396-.014l-.28.021a.6.6 0 0 0-.312.084l-.125.096a.63.63 0 0 0-.159.272.47.47 0 0 0-.011.246.58.58 0 0 0 .232.403.61.61 0 0 0 .539.111" style="fill:#242021"/><path d="M253.985 98.188c-.544-4.216-.492-8.458-.771-12.692-.021-.326-.301-.515-.583-.59-3.549-.95-7.031-1.09-10.691-.893-1.744.094-3.486.237-5.229.341-.191-1.905-.383-3.804-.542-5.708.624.004 1.257-.057 1.845-.093 1.295-.08 2.591-.157 3.886-.24.86-.055 1.991.049 2.77-.39.831-.469.696-1.384.596-2.198-.15-1.22-.078-2.457-.175-3.684-.069-.868.107-2.331-.57-3.005-.673-.67-1.922-.316-2.746-.236q-1.84.182-3.68.368c-.76.076-1.521.138-2.282.196-.001-2.071.043-4.142.144-6.208 2.394-.095 4.819-.034 7.208.034 2.516.072 5.06.039 7.569.229.366.028.815-.207.832-.626.178-4.389.327-8.785.5-13.177.019-.485-.296-.813-.785-.795l-16.703.587c-5.558.196-11.143.25-16.686.725a.45.45 0 0 0-.204.07c-.252-.057-.527.062-.571.389-.241 1.811.401 3.901.659 5.705q.416 2.91.751 5.831c.456 3.987.796 8.001 1.076 12.005.565 8.07.69 16.174.578 24.261-.01.714.779 1.038 1.236.776 5.26-.199 10.526-.247 15.79-.266 5.351-.019 10.722.328 16.066.206.445-.008.764-.517.712-.922" style="fill:#d31145"/><path d="M216.761 51.337c.415 3.93 1.213 7.81 1.67 11.741s.786 7.894.908 11.85c.12 3.892.162 7.794.245 11.688.043 2.025.024 4.054.012 6.079-.01 1.706-.259 4.051.534 5.593.095.184.334.189.432.005.778-1.468.589-3.697.589-5.331 0-2.026-.009-4.052-.014-6.078-.01-4.065-.106-8.081-.391-12.137-.283-4.03-.587-8.051-1.114-12.059-.51-3.876-1.051-7.794-2.348-11.49-.103-.298-.554-.163-.523.139M236.363 79.236c1.854.331 3.718.059 5.573-.163.893-.107 1.901-.172 2.736-.517.721-.297 1.614-.959 1.252-1.844-.134-.329-.565-.372-.787-.112-.204.239-.355.507-.681.59-.323.083-.714.06-1.046.106q-1.186.167-2.369.35c-1.569.244-3.134.373-4.674.768-.432.112-.495.734-.004.822M236.031 63.691c1.559.339 3.277.23 4.867.288q2.288.085 4.577.167c.749.027 6.927.762 6.429-1.127-.067-.253-.274-.361-.526-.357-.242.003-.465.164-.687.235-.29.093-.594.119-.896.125-1.477.03-2.973-.084-4.45-.125q-2.291-.064-4.582-.131c-1.544-.045-3.193-.259-4.727-.034-.557.08-.53.845-.005.959M221.988 99.734c4.882-.279 9.816.063 14.695.305 2.276.113 4.555.187 6.834.191 2.052.004 4.592.183 6.405-.949.168-.105.124-.388-.054-.456-1.928-.735-4.316-.329-6.335-.299-2.524.037-5.049-.04-7.572-.095-4.725-.103-9.381-.132-14.078.482-.534.069-.423.851.105.821M252.031 99.63c.223-.024.453-.035.667-.105.109-.036.236-.068.327-.139q.09-.071.177-.147c.147-.127.167-.353.006-.481a6 6 0 0 0-.174-.133c-.1-.072-.21-.097-.326-.131a1.7 1.7 0 0 0-.39-.069l-.28-.018a.6.6 0 0 0-.32.04l-.137.078a.6.6 0 0 0-.195.247.5.5 0 0 0-.046.242.58.58 0 0 0 .173.431.61.61 0 0 0 .518.185" style="fill:#242021"/><path d="M304.203 67.877c-.58-3.379-1.927-6.735-4.036-9.452-2.222-2.861-5.437-4.426-8.735-5.734-3.894-1.545-8.016-2.407-12.158-2.956-4.249-.563-8.603-.853-12.879-.514-.198-.164-.56-.143-.606.166-.596 3.997-.809 8.04-1.121 12.068q-.478 6.17-.951 12.341c-.316 4.117-.758 8.224-1.105 12.338-.175 2.081-.353 4.161-.499 6.245-.067.954-.156 1.909-.199 2.865-.031.677-.114 1.407.098 2.045-.116.401.032.867.56 1 3.777.957 7.65 1.377 11.54 1.482 3.651.098 7.341.047 10.95-.567 6.854-1.166 12.637-4.958 15.824-11.197 3.105-6.079 4.477-13.369 3.317-20.13m-15.226 13.226c-2.192 3.543-5.855 6.321-10.053 6.896-.663.091-1.684.33-2.186-.274-.553-.666-.217-2.042-.161-2.809.206-2.843.422-5.687.73-8.521.574-5.275 1.412-17.229 2.207-17.294 5.365-.443 9.431 3.92 10.964 8.682 1.407 4.369.923 9.401-1.501 13.32" style="fill:#d31145"/><path d="M265.537 49.352c-.487 2.626-.591 5.331-.785 7.99-.198 2.72-.454 5.408-.725 8.125a773 773 0 0 0-1.457 16.504 539 539 0 0 0-.582 8.133c-.078 1.231-.101 2.465-.161 3.697-.033.664-.008 1.31-.004 1.972.004.626-.168 1.299-.106 1.918.17 1.696 3.379 1.865 4.606 2.089 2.402.438 4.829.696 7.27.761 2.825.076 5.652-.08 8.452-.457 2.845-.384 5.855-.873 8.534-1.935.671-.266.429-1.261-.303-1.1-2.333.513-4.603 1.198-6.969 1.581a51 51 0 0 1-7.176.637 57 57 0 0 1-7.136-.336c-1.17-.124-2.332-.3-3.493-.489-.609-.099-1.214-.22-1.822-.321-.853-.141-1.262-.453-1.332-1.361-.048-.611.239-1.351.318-1.972.073-.572.109-1.151.163-1.726.125-1.316.277-2.627.391-3.944.222-2.545.405-5.093.602-7.64.381-4.926.761-9.851 1.109-14.78.204-2.882.402-5.746.705-8.618.301-2.853.74-5.741.746-8.614 0-.47-.754-.603-.845-.114M295.159 95.207c1.895-.812 3.427-2.374 4.578-4.049.659-.959 1.211-1.976 1.725-3.019.261-.53.517-1.063.758-1.602.12-.268.274-.553.327-.845.049-.269.013-.555.024-.828.01-.247-.289-.328-.454-.188-.451.385-.745.665-1.014 1.208-.249.501-.484 1.009-.728 1.512-.483.997-.988 1.992-1.562 2.94-1.038 1.713-2.298 3.215-3.971 4.332-.341.228-.047.695.317.539M303.233 83.839l.189-.477c.048-.121.053-.252.068-.381.004-.04.011-.08.013-.121a.6.6 0 0 0-.088-.305q-.014-.02-.025-.041l.051.122q-.009-.049-.025-.095a.46.46 0 0 0-.117-.201.452.452 0 0 0-.644 0c-.026.02-.046.046-.068.07l.104-.08q-.02.014-.042.024a.6.6 0 0 0-.222.214q-.024.05-.043.101l-.052.122c-.025.059-.061.116-.072.179l-.01.068-.071.51a.4.4 0 0 0-.01.218.4.4 0 0 0 .065.203.55.55 0 0 0 .748.196l.111-.085a.53.53 0 0 0 .14-.241M279.463 59.351c.859.209 1.733.234 2.586.507.879.281 1.722.692 2.504 1.18a11.76 11.76 0 0 1 3.881 3.981c1.024 1.741 1.608 3.859 1.847 5.853.123 1.025.15 2.062.109 3.093-.021.511-.087 1.039-.022 1.548.063.485.277.92.361 1.405.014.08.135.09.171.022.251-.474.624-.88.769-1.403.153-.551.16-1.161.172-1.727a20.5 20.5 0 0 0-.193-3.278c-.327-2.338-1.096-4.485-2.395-6.457-1.088-1.653-2.532-3.082-4.228-4.107-1.531-.925-3.74-1.801-5.561-1.475-.441.078-.411.759-.001.858" style="fill:#242021"/><path d="M351.811 70.795c-4.503-9.986-16.716-13.9-26.805-10.517a24.7 24.7 0 0 0-6.247 3.144c-10.113 7.049-14.097 22.25-9.284 33.656 4.038 9.569 14.618 14.356 24.657 12.262 5.135-1.071 9.381-4.639 12.551-8.678 3.074-3.917 5.18-8.868 6.344-13.699 1.276-5.295 1.038-11.17-1.216-16.168m-22.432 27.584c-5.647 1.863-6.844-6.493-6.723-10.163a24.5 24.5 0 0 1 3.167-11.261c1.711-3.01 4.993-7.471 8.924-5.017 4.934 3.081 5.174 10.193 3.895 15.222-1.23 4.83-4.337 9.594-9.263 11.219" style="fill:#d31145"/><path d="M332.862 71.413c1.403.579 2.722 1.274 3.748 2.414 1.121 1.245 1.763 2.77 2.099 4.401.75 3.643-.415 7.177-.751 10.763-.016.169.224.258.333.138 1.416-1.557 1.606-3.659 1.844-5.679.25-2.125.293-4.288-.166-6.389-.663-3.041-3.567-6.975-7.108-6.16-.281.065-.219.422.001.512M336.245 91.346q-.006.082-.016.165l.019-.142q-.015.108-.039.213l-.025.1c-.031.119-.018.208-.002.325l-.017-.124.004.034.016-.119c-.009.052-.025.101-.037.152a.6.6 0 0 0-.018.158q.003.036.001.072l.012-.091c-.033.126-.089.245-.095.376-.006.146.139.228.267.203.138-.026.255-.133.362-.218.01-.008.046-.037.001-.001-.043.035-.004.009.01.002a.5.5 0 0 0 .132-.09c.041-.039.074-.086.111-.129l-.09.07a.7.7 0 0 0 .252-.247q.04-.072.076-.148.096-.201.164-.413a.56.56 0 0 0-.056-.427.53.53 0 0 0-.405-.265.53.53 0 0 0-.41.109.56.56 0 0 0-.217.435M319.809 62.388c-1.514.418-2.745 2.047-3.81 3.13a30.6 30.6 0 0 0-3.106 3.689c-2.038 2.859-3.706 5.966-4.64 9.362-.965 3.51-1.365 7.54-.99 11.158a40 40 0 0 0 .946 5.445c.414 1.67.995 3.609 2.297 4.802.109.1.336.039.32-.133-.15-1.644-.953-3.207-1.474-4.761a23.7 23.7 0 0 1-1.176-5.568c-.325-3.699-.04-7.132 1.056-10.673.964-3.111 2.346-6.187 4.278-8.819a31.5 31.5 0 0 1 3.227-3.762c1.099-1.088 2.761-1.887 3.591-3.192.221-.345-.141-.782-.519-.678M314.238 104.242c.261.259.513.533.785.779.133.12.284.224.426.334.092.071.186.124.287.179.055.03.115.064.177.077.043.009.089.012.133.018.083.011.158.005.22-.058a.23.23 0 0 0 .058-.221q-.017-.059-.035-.116a.6.6 0 0 0-.113-.193c-.056-.072-.109-.152-.173-.218s-.136-.126-.203-.188c-.08-.074-.158-.152-.245-.219-.303-.234-.62-.452-.93-.677-.129-.094-.324-.033-.413.082a.32.32 0 0 0 .026.421M334.504 109.326c5.034-1.414 9.277-4.602 12.597-8.598 1.645-1.979 3.143-4.167 4.26-6.491.553-1.151.634-2.305.925-3.523.185-.777.718-1.046.961-1.714.208-.575.16-1.017-.08-1.563-.082-.185-.339-.174-.466-.06-1.108.996-.319 2.127-.866 3.315-.503 1.094-1.231 2.073-1.737 3.174a27.8 27.8 0 0 1-3.985 6.322c-3.173 3.773-7.328 6.678-11.73 8.852-.16.08-.047.333.121.286M348.471 66.432a12.4 12.4 0 0 1 2.344 2.981c.148.267.268.55.419.815.159.278.347.534.492.82.298.588.518 1.194.657 1.839.015.07.124.053.123-.017a12.4 12.4 0 0 0-.172-1.97c-.059-.332-.099-.674-.208-.993-.117-.346-.297-.664-.484-.977-.725-1.209-1.663-2.164-2.886-2.866-.228-.13-.483.183-.285.368" style="fill:#242021"/><path d="M417.786 98.757c-.261-.68-1.003-1.448-1.556-1.898-.225-.183-1.928-1.054-1.928-1.26a41 41 0 0 0-5.369-2.938c-2.845-1.293-6.761-3.548-9.752-1.609-1.507.977-2.749 2.452-3.981 3.74a199 199 0 0 0-4.303 4.655c-2.029 2.263-4.291 4.549-6.181 7.027.227-.874.427-1.755.655-2.609.549-2.056 1.038-4.135 1.684-6.163.695-2.18 1.206-4.432 1.749-6.654.493-2.013 1.229-4.135 1.457-6.194.189-1.703-1.368-2.29-2.655-2.919-1.986-.969-3.942-1.992-5.897-3.022-1.885-.993-3.748-2.062-5.716-2.884-1.672-.698-4.512-1.965-5.633.148-.581 1.095-1.177 2.183-1.736 3.289-.36.712-1.495 2.224-1.495 2.996a283 283 0 0 1-3.392 6.34c-2.299 4.17-4.715 8.269-7.19 12.336-1.177 1.935-2.374 3.874-3.35 5.921-.471.988-.944 2.002-1.302 3.038-.242.7-.709 1.744-.551 2.494.298 1.413 2.629 1.837 3.756 2.275 2.44.949 4.858 1.886 7.397 2.529.302.076.709-.045.854-.347 1.71-3.583 3.61-7.053 5.465-10.563 1.592-3.01 3.358-5.802 5.536-8.399-.051.725-.218 1.507-.262 2.169-.086 1.314-.315 2.599-.531 3.895-.361 2.162-.663 4.332-.978 6.501-.324 2.232-.846 4.452-1.269 6.669-.197 1.033-.394 2.065-.567 3.102-.145.865-.437 1.856-.328 2.745.197 1.61 1.995 2.2 3.226 2.883 1.018.565 2.058 1.082 3.098 1.607.755.381 1.622.996 2.474 1.106.676.088 1.102-.322 1.545-.775.864-.882 1.68-1.811 2.544-2.694 1.553-1.59 3.124-3.161 4.668-4.76a3690 3690 0 0 0 8.227-8.554c-1.795 4.444-3.675 8.847-5.205 13.404a142 142 0 0 0-1.253 3.969c-.292.963-.82 2.156-.617 3.187.186.944.939 1.27 1.73 1.673 1.287.655 2.505 1.426 3.809 2.06 1.143.555 2.299 1.095 3.492 1.538.669.248 1.598.861 2.337.559.906-.369 1.381-2.095 1.806-2.898 3.262-6.16 6.532-12.195 9.275-18.618a186 186 0 0 0 4.079-10.347q.96-2.676 1.815-5.387c.273-.864.636-1.524.319-2.363" style="fill:#d31145"/><path d="M370.202 76.938c-.525.665-1.156 1.211-1.632 1.925-.642.963-1.196 1.989-1.78 2.987-1.086 1.859-2.139 3.736-3.194 5.613-2.11 3.753-4.246 7.491-6.342 11.252l-3.023 5.425c-.92 1.652-1.948 3.293-2.657 5.05-.456 1.13-1.138 3.068-.367 4.213.586.87 1.986 1.313 2.897 1.773 1.423.719 2.934 1.296 4.434 1.836 1.341.483 2.81 1.072 4.256.9.465-.056.715-.657.252-.932-1.245-.741-2.735-.993-4.125-1.357-1.642-.43-3.284-.891-4.891-1.438-.865-.294-2.147-.699-2.202-1.812-.059-1.199.787-2.668 1.316-3.693 1.061-2.057 2.267-4.046 3.404-6.062 2.4-4.256 4.767-8.529 7.152-12.793 1.212-2.168 2.448-4.325 3.623-6.513.548-1.021 1.113-2.036 1.647-3.065.567-1.093.826-2.166 1.245-3.302.003-.006-.008-.013-.013-.007M374.098 98.197c-.655 2.14-.923 4.46-1.362 6.657-.428 2.143-.965 4.246-1.315 6.407a142 142 0 0 0-.855 6.19c-.239 2.044-.694 4.337-.106 6.342.05.169.332.243.414.054.786-1.813.775-3.966.996-5.915.257-2.272.597-4.53.934-6.792.324-2.172.546-4.355.91-6.52.353-2.097.926-4.208 1.105-6.326.036-.424-.604-.479-.721-.097M395.426 112.415c-2.227 4.476-3.802 9.37-5.244 14.149-.36 1.192-.722 2.387-1.014 3.597-.209.865-.591 1.853-.37 2.749.248 1.007 1.158 1.692 1.923 2.305.681.546 1.345 1.186 2.266.974.152-.035.242-.21.202-.356-.233-.851-1.01-1.148-1.684-1.635-.414-.299-.982-.664-1.323-1.058-.503-.582-.374-.966-.185-1.611.617-2.11 1.216-4.226 1.88-6.322 1.331-4.202 3.045-8.235 4.563-12.365.215-.586-.735-.988-1.014-.427M393.482 136.652q.179.084.336.203l-.104-.08c.083.065.16.136.251.191q.082.05.159.109l-.099-.077c.076.059.142.12.24.143.127.03.271.02.384-.053l-.329.043c.023.008.047.02.072.025a.38.38 0 0 0 .331-.068.38.38 0 0 0 .15-.298c0-.06-.015-.124-.027-.184l-.043.329a.5.5 0 0 0 .058-.127.5.5 0 0 0-.07-.407 4 4 0 0 0-.142-.182 1 1 0 0 0-.265-.225 2.4 2.4 0 0 0-.526-.228.5.5 0 0 0-.373.049l-.098.076a.36.36 0 0 0-.1.156.47.47 0 0 0-.025.315c.034.114.108.238.22.29M385.622 106.305c1.488-1.387 2.816-2.973 4.196-4.467a656 656 0 0 0 4.145-4.518c1.294-1.428 2.558-2.891 3.891-4.282.569-.594 1.155-1.183 1.874-1.595.431-.248.8-.328 1.277-.414.279-.05.471-.091.665-.305a.275.275 0 0 0 .042-.322c-.706-1.227-3.023.241-3.73.797-1.569 1.232-2.851 2.885-4.199 4.345a711 711 0 0 0-4.465 4.883c-1.51 1.668-3.132 3.285-4.514 5.061-.445.572.257 1.339.818.817M402.982 91.503l.49.171c.162.057.324.124.491.166.206.052.409.099.622.11.081.004.164.015.245.008a.9.9 0 0 0 .353-.121c.179-.09.204-.318.126-.481a.8.8 0 0 0-.161-.247c-.08-.078-.188-.138-.281-.202-.141-.097-.299-.16-.455-.229-.353-.156-.733-.259-1.099-.381-.31-.103-.697.119-.769.437-.078.35.107.653.438.769M408.634 123.203c.65-1.485 1.305-2.967 1.931-4.463.315-.753.648-1.498.893-2.278.241-.767.428-1.572.619-2.354.023-.095-.105-.149-.157-.066-.431.681-.878 1.375-1.266 2.081-.393.716-.697 1.475-1.02 2.225-.642 1.488-1.254 2.989-1.871 4.488-.203.495.655.862.871.367M414.142 111.747c.053-.242.124-.487.152-.733l.033-.317c.005-.052.015-.106.017-.159.002-.059-.016-.12-.029-.178-.019-.091-.151-.153-.229-.093-.046.035-.096.067-.135.108-.045.048-.081.11-.119.164-.064.091-.132.181-.194.274-.061.092-.11.194-.163.291l-.161.293a.454.454 0 0 0 .217.643c.236.101.552-.024.611-.293M380.608 79.043a69 69 0 0 0 2.237 1.493c.364.231.723.481 1.101.691.362.201.881.47 1.303.311.082-.031.172-.111.161-.211-.054-.462-.465-.778-.823-1.026-.367-.254-.765-.467-1.149-.694a69 69 0 0 0-2.38-1.333c-.511-.274-.917.446-.45.769M390.714 84.763l-.029-.083-.061-.144-.051-.066c-.055-.071-.079-.106-.171-.156l-.022-.012.251.327-.022-.068-.01-.03c-.008-.027-.019-.048-.031-.076a.26.26 0 0 0-.065-.112.374.374 0 0 0-.206-.16.37.37 0 0 0-.194-.043l-.134.018a.5.5 0 0 0-.222.129l-.004.004-.08.103c-.026.04-.04.087-.055.133l-.011.034-.022.068.251-.327-.02.011-.006.003-.121.093a.64.64 0 0 0-.159.271l-.029.083a.64.64 0 0 0 .163.615l.128.099a.63.63 0 0 0 .319.086.5.5 0 0 0 .244-.054.5.5 0 0 0 .204-.131.64.64 0 0 0 .165-.615" style="fill:#242021"/><path d="M393.245 171.51c-2.53-10.04-7.38-19.78-15.47-26.46-9.52-7.86-22.2-10.56-34.32-9.84-19.19 1.14-36.87 11.14-51.57 22.92-13.97 11.19-25.88 25.03-34.69 40.61-.1.17-.19.34-.28.52-6.89-11.76-16.34-22.21-25.37-32.13-12.5-13.71-26.58-27.43-45.11-32.1-8.55-2.15-17.58-2.42-26.2-.43-7.69 1.78-14.79 5.5-21.06 10.27-10.02 7.63-17.37 18.06-21.68 29.87-.14.39-.29.79-.42 1.19-2.18 6.28-3.54 12.81-4.26 19.43-.63 5.77-.79 11.61-.58 17.38.2 5.8.76 11.59 1.61 17.35 1.12 7.61 2.75 15.17 4.75 22.59 3.31 12.25 7.67 24.23 13.03 35.72a249 249 0 0 0 8.268 16.097c7.491 11.456 16.067 22.163 25.338 32.229 10.321 11.206 21.431 21.639 32.96 31.59 11.45 9.883 23.408 19.109 35.258 28.498 5.921 4.691 11.994 9.459 18.358 13.754 15.84-12.854 31.188-26.464 45.988-40.478 13.53-12.8 26.5-26.21 38.45-40.49 1.95-2.33 3.87-4.68 5.76-7.06 9.65-12.11 18.53-24.83 26.28-38.24 8.27-14.28 15.56-29.45 20.48-45.23a157.667 157.667 0 0 0 6.56-33.27c1-11.41.72-23.14-2.08-34.29" style="fill:#fff"/><path d="M395.325 205.8c-.92 10.58-2.92 21.09-5.95 31.27-91.57-12.04-184.44-18.97-275.53-6.98-.85-5.76-1.41-11.55-1.61-17.35-.45-12.81.84-25.91 5.26-38 4.31-11.81 11.66-22.24 21.68-29.87 6.27-4.77 13.37-8.49 21.06-10.27 8.62-1.99 17.65-1.72 26.2.43 18.53 4.67 32.61 18.39 45.11 32.1 9.03 9.92 18.48 20.37 25.37 32.13.09-.18.18-.35.28-.52 8.81-15.58 20.72-29.42 34.69-40.61 14.7-11.78 32.38-21.78 51.57-22.92 12.12-.72 24.8 1.98 34.32 9.84 8.09 6.68 12.94 16.42 15.47 26.46 2.8 11.15 3.08 22.88 2.08 34.29" style="fill:#242021"/><path d="M155.378 325.431a280 280 0 0 0 9.853 11.296c10.321 11.206 21.431 21.639 32.96 31.59 11.45 9.883 23.408 19.109 35.258 28.498 5.921 4.691 11.994 9.459 18.358 13.754 15.84-12.854 31.188-26.464 45.988-40.478 13.53-12.8 26.5-26.21 38.45-40.49 1.95-2.33 3.87-4.68 5.76-7.06a1007 1007 0 0 0-186.627 2.89" style="fill:#029155"/><path d="M118.595 252.68c3.31 12.25 7.67 24.23 13.03 35.72a249 249 0 0 0 8.268 16.097c7.491 11.456 16.067 22.163 25.338 32.229a338 338 0 0 0 9.532 9.91c23.87-36.337 49.542-75.053 50.862-75.496 1.83-.62-75.32-48.29-112.81-75.78-.63 5.77-.79 11.61-.58 17.38.2 5.8.76 11.59 1.61 17.35 1.12 7.61 2.75 15.17 4.75 22.59" style="fill:#d31145"/><path d="M252.54 409.537c3.787-1.292 6.889-3.598 9.851-6.234 3.396-3.023 6.706-6.147 10.066-9.211 7.022-6.402 13.926-12.937 20.885-19.407q2.996-2.786 5.993-5.569c1.875-1.741 4.072-3.457 5.181-5.821.127-.271-.092-.711-.441-.574-1.958.771-3.496 2.253-5.002 3.679l-5.219 4.942-10.26 9.71c-6.772 6.408-13.504 12.856-20.255 19.286-3.354 3.194-6.866 6.465-11.148 8.369-.467.209-.135.995.349.83M309.958 358.334c.455-.653.918-1.301 1.353-1.968.219-.335.397-.685.609-1.023.208-.334.44-.658.589-1.023.105-.258-.25-.38-.418-.243-.304.247-.546.577-.804.872-.133.152-.275.28-.416.422-.129.13-.24.286-.358.427-.503.6-.979 1.221-1.463 1.836-.213.27-.24.632.059.863.287.221.651.121.849-.163M330.703 335.025c10.486-10.566 19.623-22.479 27.918-34.822a303 303 0 0 0 22.205-39.022 297 297 0 0 0 5.215-11.628c1.625-3.842 3.316-7.69 4.342-11.744.164-.648-.793-1.106-1.114-.47-1.651 3.28-2.907 6.728-4.305 10.118a289 289 0 0 1-4.478 10.284 292 292 0 0 1-10.018 19.869c-7.193 12.978-15.361 25.406-24.377 37.189-5.129 6.702-10.527 13.197-15.962 19.65-.332.395.2.953.574.576M114.761 182.523c-5.282 23.921-3.737 49.396 2.746 72.938a154 154 0 0 0 3.087 9.897c1.064 3.046 1.975 6.699 4.055 9.217.341.413 1.147.087 1.094-.453-.282-2.851-1.734-5.593-2.688-8.276a172 172 0 0 1-2.79-8.573 164 164 0 0 1-4.217-17.755 170.4 170.4 0 0 1-2.543-36.323c.254-6.851.898-13.727 1.814-20.518.048-.357-.475-.528-.558-.154M127.747 281.336a68 68 0 0 0 1.4 3.048c.242.493.501.976.768 1.457.282.506.582.964 1.065 1.294.213.145.549-.045.529-.303-.043-.566-.269-1.048-.539-1.543-.271-.498-.536-1-.807-1.497a67 67 0 0 1-1.526-2.974c-.121-.251-.479-.318-.705-.185-.265.152-.296.446-.185.703M165.714 336.441c9.484 14.246 21.6 26.626 35.211 36.963a157 157 0 0 0 5.852 4.234c1.949 1.343 3.933 2.827 6.205 3.566.598.194.973-.587.585-1.005-1.392-1.505-3.185-2.603-4.856-3.769a186 186 0 0 1-5.165-3.745c-3.386-2.537-6.655-5.22-9.857-7.985-6.391-5.52-12.283-11.542-17.897-17.845-3.194-3.586-6.242-7.309-9.182-11.105-.396-.509-1.253.155-.896.691" style="fill:#242021"/><path d="M165.167 144.226c-8.168.946-14.73 2.842-21.036 8.413-5.496 4.855-9.592 11.723-6.179 18.966.417.885 1.823 1.482 2.753 1.12 10.277-3.999 15.02-15.865 25.634-19.844 4.255-1.595 4.146-9.271-1.172-8.655M127.6 189.488c-.204 1.072-.48 2.158-.551 3.248-.067 1.041.067 2.066.164 3.101.073.776.94.975 1.398.379.638-.832 1.316-1.637 1.809-2.567.509-.96.851-2.028 1.248-3.04.988-2.522-3.553-3.818-4.068-1.121M289.546 362.36c4.197-2.462 8.227-5.264 11.774-8.615 3.062-2.893 6.954-6.011 8.229-10.155.24-.78-.551-1.558-1.326-1.326-4.145 1.24-7.488 4.957-10.837 7.574-3.645 2.847-7.115 5.915-10.566 8.99-1.93 1.717.55 4.808 2.726 3.532M321.456 330.526c.319-1.237.911-2.459 1.111-3.716.154-.966-.727-1.748-1.653-1.27-1.107.57-2.057 1.503-3.108 2.181-1.46.942-1.663 3.006-.251 4.096 1.351 1.044 3.461.416 3.901-1.291" style="fill:#fff"/></svg>