<?xml version="1.0" encoding="utf-8"?>
<!-- Generator: Adobe Illustrator 27.5.0, SVG Export Plug-In . SVG Version: 6.00 Build 0)  -->
<svg version="1.1" xmlns="http://www.w3.org/2000/svg" xmlns:xlink="http://www.w3.org/1999/xlink" x="0px" y="0px"
	 viewBox="0 0 500 500" style="enable-background:new 0 0 500 500;" xml:space="preserve">
<g id="BACKGROUND">
	<rect style="fill:#FAE2E9;" width="500" height="500"/>
</g>
<g id="OBJECTS">
	<g>
		<g>
			<path style="fill:#EDA0B5;" d="M36.541,284.1c1.66,20.97,3.86,55.18,7.72,62.35c3.87,7.17,42.21,40.27,54.9,59.31
				c13.76,20.63,13.52,51.86,6.35,68.96c-3.88,9.24-8.39,18.71-11.73,25.48h86.86c6.51-19.19,18.55-58.41,16.45-80.37
				c-3.17-33.24-10.62-53.93-29.79-73.93c-12.15-12.68-46.9-45.24-46.9-45.24s2.76-33.11,5.52-50.21
				c2.76-17.11,2.21-24.83-0.55-28.14c-2.76-3.31-6.07-4.97-6.07-4.97s1.65-26.48-3.31-35.31c-4.97-8.82-11.04-8.27-13.24-3.86
				c-2.21,4.42-9.93,33.11-11.04,36.97c-1.1,3.86-1.65,8.27-1.65,8.27s3.31-45.79-3.86-68.41c-7.18-22.62-20.42-24.83-23.73-17.1
				c-3.31,7.72-3.31,76.13-3.31,76.13s-4.96-23.17-12.69-37.51c-7.72-14.35-18.21-17.11-20.41-9.93
				C23.851,173.76,34.891,263.14,36.541,284.1z"/>
			<g>
				<path style="fill:#242021;" d="M119.489,217.965c-0.212,2.292-0.298,4.57-0.638,6.853c-0.343,2.309-0.721,4.614-1.112,6.915
					c-0.755,4.437-1.582,8.861-2.453,13.276c-1.721,8.717-3.538,17.421-5.384,26.112c-0.546,2.57-1.018,5.158-1.487,7.743
					c-0.227,1.25-0.448,2.502-0.662,3.754c-0.22,1.288-0.267,2.72-0.916,3.874c-0.17,0.302-0.698,0.26-0.771-0.101
					c-0.188-0.932-0.007-1.774,0.142-2.703c0.202-1.265,0.411-2.529,0.624-3.793c0.39-2.307,0.8-4.611,1.225-6.912
					c0.82-4.435,1.632-8.865,2.568-13.278c1.842-8.685,3.744-17.36,5.396-26.084c0.488-2.576,0.952-5.156,1.387-7.741
					c0.452-2.682,1.085-5.316,1.576-7.985C119.035,217.614,119.516,217.675,119.489,217.965L119.489,217.965z"/>
			</g>
			<g>
				<path style="fill:#242021;" d="M90.514,221.69c-0.298,3.29-0.415,6.591-0.781,9.881c-0.32,2.882-0.638,5.765-0.923,8.651
					c-0.286,2.894-0.562,5.79-0.789,8.689c-0.241,3.081,0.017,6.661-1.12,9.574c-0.091,0.234-0.434,0.269-0.512,0
					c-0.87-2.984-0.204-6.521,0.031-9.574c0.228-2.967,0.507-5.929,0.842-8.887c0.336-2.96,0.705-5.916,1.076-8.872
					c0.402-3.201,1.053-6.365,1.485-9.556C89.876,221.207,90.55,221.295,90.514,221.69L90.514,221.69z"/>
			</g>
			<g>
				<path style="fill:#242021;" d="M59.178,213.349c0.652,3.774,1.305,7.537,1.818,11.333c0.237,1.753,0.466,3.507,0.686,5.261
					c0.232,1.855,0.753,3.841,0.311,5.685c-0.057,0.236-0.414,0.289-0.528,0.069c-0.84-1.621-0.825-3.59-1.034-5.376
					c-0.207-1.766-0.41-3.532-0.619-5.298c-0.453-3.822-0.864-7.654-1.386-11.467C58.358,213.071,59.091,212.847,59.178,213.349
					L59.178,213.349z"/>
			</g>
			<g>
				<path style="fill:#242021;" d="M136.593,317.242c-11.726-10.416-23.332-20.891-33.158-33.181
					c-9.767-12.216-17.187-26.191-27.545-37.945c-2.48-2.814-5.093-5.85-8.371-7.755c-3.216-1.869-6.71-1.878-9.92-0.01
					c-6.943,4.039-7.663,12.779-6.652,19.954c2.287,16.225,10.097,31.247,18.104,45.31c7.511,13.191,17.025,26.284,19.298,41.66
					c0.262,1.774,0.384,3.516,0.336,5.31c-0.025,0.94-1.35,0.908-1.438,0c-0.381-3.941-0.999-7.826-2.147-11.621
					c-1.149-3.798-2.752-7.454-4.516-11.004c-3.585-7.215-7.992-13.977-12.032-20.937c-8.382-14.439-16.648-29.741-19.499-46.379
					c-1.241-7.245-1.366-15.499,4.021-21.197c2.249-2.379,5.184-3.975,8.468-4.254c3.46-0.294,6.683,1.3,9.329,3.391
					c3.061,2.419,5.685,5.445,8.176,8.43c2.558,3.064,4.951,6.264,7.256,9.523c4.706,6.654,9.017,13.577,13.763,20.204
					c9.382,13.1,20.809,24.701,32.566,35.663c1.518,1.415,2.966,2.899,4.492,4.308C137.479,317.041,136.952,317.561,136.593,317.242
					L136.593,317.242z"/>
			</g>
			<g>
				<path style="fill:#242021;" d="M49.14,251.869c0.05-0.039,0.088-0.096,0.092-0.18c0.023-0.458,0.037-0.915,0.054-1.372
					c0.559,1.248,1.296,2.436,1.956,3.618c0.818,1.466,1.757,2.837,2.776,4.169c2.031,2.654,4.52,4.95,7.912,5.615
					c3.565,0.699,7.198-1.27,9.185-4.186c2.176-3.192,2.72-7.308,1.906-11.041c-0.805-3.691-2.526-7.012-4.2-10.358
					c0.113,0.055,0.227,0.111,0.34,0.166c0.301,0.146,0.59,0.306,0.883,0.462c-0.036,0.124-0.005,0.274,0.113,0.345
					c0.211,0.126,0.443,0.227,0.675,0.325c1.561,2.511,2.66,5.461,3.394,8.184c1.077,3.998,1.016,8.532-1.05,12.216
					c-1.852,3.303-5.403,5.716-9.206,5.966c-4,0.264-7.579-2.111-10.015-5.098c-1.28-1.569-2.362-3.282-3.327-5.06
					c-0.662-1.219-1.132-2.43-1.494-3.689C49.134,251.924,49.137,251.896,49.14,251.869z"/>
			</g>
			<g>
				<path style="fill:#242021;" d="M80.627,280.511c-0.451,0.067-0.909,0.252-1.339,0.408c-0.429,0.155-0.86,0.297-1.281,0.476
					c-0.851,0.363-1.665,0.741-2.449,1.237c-0.761,0.483-1.466,1.017-2.107,1.654c-0.629,0.624-1.253,1.461-2.047,1.868
					c-0.272,0.14-0.646-0.028-0.635-0.364c0.034-0.988,0.788-1.949,1.461-2.625c0.726-0.729,1.551-1.393,2.433-1.924
					c0.843-0.508,1.817-0.957,2.772-1.202c0.503-0.129,1.04-0.226,1.558-0.266c0.52-0.04,1.022,0.037,1.537,0.032
					C80.923,279.801,81.037,280.45,80.627,280.511L80.627,280.511z"/>
			</g>
			<g>
				<path style="fill:#242021;" d="M84.902,290.219c-1.601,0.377-3.183,1.062-4.595,1.904c-0.706,0.421-1.375,0.892-2.042,1.37
					c-0.702,0.504-1.383,0.945-2.151,1.328c-0.282,0.14-0.692-0.096-0.574-0.441c0.303-0.886,0.792-1.626,1.494-2.253
					c0.703-0.628,1.512-1.156,2.358-1.569c0.821-0.4,1.681-0.762,2.574-0.962c0.918-0.206,1.866-0.303,2.806-0.329
					C85.315,289.253,85.437,290.093,84.902,290.219L84.902,290.219z"/>
			</g>
			<g>
				<path style="fill:#242021;" d="M55.74,204.686c-2.085-0.35-4.396-0.165-6.485,0.112c-2.055,0.273-4.058,0.931-6.12,1.105
					c-0.288,0.024-0.486-0.414-0.249-0.6c1.741-1.362,4.125-1.805,6.284-1.967c2.335-0.176,4.477,0.23,6.744,0.717
					C56.332,204.143,56.149,204.754,55.74,204.686L55.74,204.686z"/>
			</g>
			<g>
				<path style="fill:#242021;" d="M89.975,187.857c-1.254-0.291-2.404-1.017-3.603-1.479c-1.325-0.511-2.694-0.939-4.072-1.282
					c-1.35-0.336-2.727-0.583-4.103-0.787c-1.348-0.2-2.726-0.296-4.048-0.627c-0.307-0.077-0.297-0.529,0-0.611
					c2.717-0.753,5.883-0.122,8.55,0.576c1.402,0.367,2.76,0.839,4.083,1.432c1.221,0.548,2.658,1.169,3.502,2.249
					C90.471,187.569,90.305,187.934,89.975,187.857L89.975,187.857z"/>
			</g>
			<g>
				<path style="fill:#242021;" d="M88.277,233.279c-1.598-0.547-3.235-0.897-4.902-1.156c-1.635-0.254-3.284-0.319-4.918-0.593
					c-0.33-0.056-0.278-0.531,0-0.618c1.692-0.525,3.374-0.483,5.117-0.26c1.737,0.223,3.429,0.7,5.061,1.331
					C89.426,232.29,89.108,233.563,88.277,233.279L88.277,233.279z"/>
			</g>
			<g>
				<path style="fill:#242021;" d="M27.17,165.319c0.725,1.584,0.902,3.498,1.1,5.215c0.213,1.848,0.209,3.703,0.225,5.56
					c0.029,3.448,0.223,7.538-1.348,10.722c-0.084,0.17-0.332,0.077-0.339-0.092c-0.07-1.803,0.331-3.668,0.508-5.461
					c0.17-1.714,0.376-3.445,0.37-5.17c-0.006-1.725-0.193-3.455-0.398-5.166c-0.215-1.794-0.702-3.64-0.719-5.447
					C26.566,165.18,27.032,165.018,27.17,165.319L27.17,165.319z"/>
			</g>
			<g>
				<path style="fill:#242021;" d="M63.67,136.432c0.699,3.284,0.644,6.651,0.549,9.995c-0.051,1.776-0.233,3.559-0.71,5.276
					c-0.404,1.452-1.062,3.412-2.388,4.271c-0.245,0.158-0.555-0.103-0.482-0.371c0.198-0.724,0.647-1.356,0.945-2.042
					c0.347-0.799,0.63-1.634,0.842-2.479c0.432-1.724,0.591-3.512,0.645-5.284c0.095-3.089,0.248-6.197-0.034-9.28
					C63.004,136.156,63.595,136.078,63.67,136.432L63.67,136.432z"/>
			</g>
			<g>
				<path style="fill:#242021;" d="M104.439,176.211c0.065,2.391-0.208,4.778-1.029,7.035c-0.391,1.076-0.848,2.15-1.428,3.138
					c-0.529,0.9-1.153,1.824-2.112,2.303c-0.132,0.066-0.25-0.065-0.192-0.192c0.423-0.938,0.98-1.815,1.44-2.737
					c0.49-0.983,0.926-1.98,1.276-3.022c0.709-2.112,1.241-4.301,1.424-6.525C103.85,175.817,104.428,175.806,104.439,176.211
					L104.439,176.211z"/>
			</g>
			<g>
				<path style="fill:#242021;" d="M118.715,222.62c-1.969-2.151-4.18-4.138-6.584-5.792c-1.18-0.812-2.41-1.551-3.681-2.209
					c-1.244-0.645-2.609-1.156-3.683-2.077c-0.192-0.165-0.036-0.499,0.204-0.493c1.437,0.034,2.788,0.734,4.031,1.397
					c1.332,0.712,2.616,1.511,3.843,2.39c2.453,1.758,4.625,3.791,6.488,6.166C119.671,222.432,119.104,223.046,118.715,222.62
					L118.715,222.62z"/>
			</g>
			<g>
				<path style="fill:#242021;" d="M113.062,251.866c-1.539-1.14-3.239-2.033-4.968-2.846c-0.847-0.399-1.715-0.749-2.599-1.056
					c-0.897-0.312-1.813-0.582-2.652-1.034c-0.243-0.131-0.215-0.58,0.082-0.628c1.968-0.318,4.038,0.495,5.801,1.299
					c1.846,0.842,3.447,2.152,4.847,3.604C113.892,251.534,113.461,252.161,113.062,251.866L113.062,251.866z"/>
			</g>
			<g>
				<path style="fill:#242021;" d="M124.711,258.92c-0.4-0.32-0.8-0.65-1.21-0.95c-0.81-0.59-1.66-1.11-2.54-1.6
					c-1.72-0.96-3.57-1.71-5.36-2.52c-0.29-0.13-0.13-0.55,0.15-0.56c2.16-0.06,4.17,0.61,6.04,1.66c0.91,0.51,1.75,1.14,2.56,1.8
					c0.19,0.15,0.39,0.32,0.58,0.5L124.711,258.92z"/>
			</g>
			<g>
				<path style="fill:#242021;" d="M121.871,284.65c-0.57-0.35-1.17-0.67-1.77-0.97c-1.16-0.57-2.43-0.92-3.52-1.59
					c-0.38-0.23-0.2-0.75,0.21-0.78c1.38-0.12,2.77,0.49,3.99,1.08c0.43,0.2,0.84,0.44,1.24,0.69L121.871,284.65z"/>
			</g>
			<g>
				<path style="fill:#242021;" d="M191.371,429.552c-4.74,3.96-11.173,6.376-17.371,5.232c-0.259-0.048-0.186-0.437,0.06-0.445
					c5.982-0.19,11.876-1.662,16.603-5.494C191.157,428.445,191.868,429.137,191.371,429.552L191.371,429.552z"/>
			</g>
			<g>
				<path style="fill:#242021;" d="M107.92,464.46c0.324-2.285,0.972-4.526,1.356-6.805c0.403-2.392,0.666-4.804,0.802-7.225
					c0.26-4.63,0.115-9.29-0.497-13.888c-0.621-4.665-1.732-9.261-3.088-13.763c-1.359-4.509-3.397-8.696-5.611-12.837
					c-1.207-2.257-2.642-4.4-4.153-6.465c-1.57-2.144-3.521-4.085-4.859-6.386c-0.132-0.227,0.14-0.53,0.374-0.374
					c1.94,1.297,3.39,3.233,4.8,5.061c1.443,1.87,2.791,3.814,4.034,5.823c2.55,4.122,4.626,8.4,6.37,12.923
					c3.499,9.075,5.086,18.834,4.498,28.563c-0.159,2.634-0.468,5.261-0.917,7.861c-0.462,2.668-0.958,5.467-2.065,7.953
					C108.675,465.544,107.838,465.037,107.92,464.46L107.92,464.46z"/>
			</g>
		</g>
		<path style="fill:#242021;" d="M40.539,168.768c1.869,2.413,3.803,4.724,5.372,7.357c0.753,1.264,1.44,2.567,2.058,3.902
			c0.634,1.372,1.156,2.775,1.918,4.082c0.134,0.23,0.432,0.063,0.4-0.169c-0.417-2.963-2.128-5.859-3.676-8.375
			c-1.579-2.568-3.425-5.173-5.718-7.151C40.643,168.199,40.345,168.517,40.539,168.768L40.539,168.768z"/>
		<path style="fill:#242021;" d="M79.884,142.805c1.973,3.267,3.887,6.502,5.26,10.078c0.645,1.679,1.193,3.395,1.641,5.137
			c0.471,1.83,0.613,3.831,1.339,5.58c0.103,0.249,0.427,0.207,0.46-0.062c0.233-1.85-0.366-3.825-0.825-5.6
			c-0.496-1.916-1.114-3.8-1.848-5.638c-1.394-3.493-3.137-6.962-5.513-9.893C80.162,142.115,79.695,142.491,79.884,142.805
			L79.884,142.805z"/>
		<path style="fill:#242021;" d="M88.444,167.239c0.052,0.327,0.105,0.654,0.157,0.98c0.026,0.165,0.068,0.32,0.115,0.48
			c0.05,0.171,0.116,0.321,0.2,0.478c0.089,0.166,0.375,0.137,0.414-0.054c0.035-0.174,0.057-0.337,0.056-0.514
			c-0.001-0.167-0.006-0.327-0.028-0.492c-0.044-0.328-0.088-0.656-0.131-0.984c-0.015-0.111-0.04-0.198-0.117-0.282
			c-0.085-0.093-0.215-0.126-0.335-0.11C88.52,166.776,88.406,167.002,88.444,167.239L88.444,167.239z"/>
		<path style="fill:#242021;" d="M174.916,356.057c3.152,3.99,5.858,8.318,8.168,12.848c1.152,2.26,2.193,4.578,3.145,6.93
			c0.875,2.163,1.413,4.788,2.818,6.681c0.171,0.23,0.541,0.163,0.553-0.15c0.091-2.405-1.208-4.93-2.113-7.101
			c-0.993-2.383-2.125-4.704-3.363-6.968c-2.476-4.526-5.431-8.762-8.689-12.759C175.135,355.169,174.628,355.692,174.916,356.057
			L174.916,356.057z"/>
		<path style="fill:#242021;" d="M34.862,271.448c0.56,6.323,1.216,12.636,1.755,18.961c0.266,3.123,0.512,6.248,0.738,9.374
			c0.113,1.564,0.232,3.127,0.343,4.691c0.106,1.501,0.05,3.088,0.576,4.512c0.08,0.216,0.421,0.258,0.482,0
			c0.349-1.473,0.102-3.016,0.007-4.512c-0.099-1.564-0.2-3.128-0.318-4.691c-0.241-3.209-0.503-6.415-0.787-9.621
			c-0.556-6.285-1.17-12.566-2.029-18.818C35.57,270.912,34.823,271.009,34.862,271.448L34.862,271.448z"/>
		<path style="fill:#242021;" d="M38.526,314.353c-0.155,1.017-0.142,2.038,0.054,3.049c0.188,0.972,0.524,2,1.227,2.722
			c0.155,0.159,0.446-0.003,0.379-0.22c-0.272-0.876-0.666-1.706-0.859-2.61c-0.191-0.898-0.225-1.836-0.093-2.745
			c0.029-0.198-0.049-0.392-0.256-0.452C38.805,314.047,38.556,314.158,38.526,314.353L38.526,314.353z"/>
		<path style="fill:#242021;" d="M120.925,301.345c0.216-2.765,0.215-5.54,0.451-8.307c0.118-1.381,0.248-2.76,0.426-4.135
			c0.088-0.681,0.194-1.36,0.288-2.041c0.101-0.73-0.01-1.336-0.097-2.067c-0.023-0.194-0.298-0.324-0.408-0.111
			c-0.32,0.624-0.628,1.136-0.765,1.827c-0.135,0.683-0.211,1.383-0.301,2.074c-0.179,1.373-0.328,2.752-0.432,4.133
			c-0.212,2.832-0.339,5.803,0.025,8.626C120.178,301.855,120.883,301.878,120.925,301.345L120.925,301.345z"/>
		<path style="fill:#242021;" d="M122.54,281.897c0.024-0.281-0.015-0.563-0.038-0.844c-0.023-0.289-0.102-0.574-0.164-0.857
			c-0.036-0.164-0.296-0.164-0.331,0c-0.062,0.283-0.141,0.568-0.164,0.857c-0.023,0.281-0.062,0.563-0.038,0.844
			c0.016,0.191,0.157,0.376,0.367,0.367C122.386,282.254,122.522,282.102,122.54,281.897L122.54,281.897z"/>
	</g>
	<g>
		<g>
			<path style="fill:#EDA0B5;" d="M459.458,284.1c-1.66,20.97-3.86,55.18-7.72,62.35c-3.87,7.17-42.21,40.27-54.9,59.31
				c-13.76,20.63-13.52,51.86-6.35,68.96c3.88,9.24,8.39,18.71,11.73,25.48h-86.86c-6.51-19.19-18.55-58.41-16.45-80.37
				c3.17-33.24,10.62-53.93,29.79-73.93c12.15-12.68,46.9-45.24,46.9-45.24s-2.76-33.11-5.52-50.21
				c-2.76-17.11-2.21-24.83,0.55-28.14s6.07-4.97,6.07-4.97s-1.65-26.48,3.31-35.31c4.97-8.82,11.04-8.27,13.24-3.86
				c2.21,4.42,9.93,33.11,11.04,36.97c1.1,3.86,1.65,8.27,1.65,8.27s-3.31-45.79,3.86-68.41c7.18-22.62,20.42-24.83,23.73-17.1
				c3.31,7.72,3.31,76.13,3.31,76.13s4.96-23.17,12.69-37.51c7.72-14.35,18.21-17.11,20.41-9.93
				C472.148,173.76,461.108,263.14,459.458,284.1z"/>
			<g>
				<path style="fill:#242021;" d="M376.511,217.965c0.212,2.292,0.298,4.57,0.638,6.853c0.343,2.309,0.721,4.614,1.112,6.915
					c0.755,4.437,1.582,8.861,2.453,13.276c1.721,8.717,3.538,17.421,5.384,26.112c0.546,2.57,1.018,5.158,1.487,7.743
					c0.227,1.25,0.448,2.502,0.662,3.754c0.221,1.288,0.267,2.72,0.916,3.874c0.17,0.302,0.698,0.26,0.771-0.101
					c0.188-0.932,0.007-1.774-0.142-2.703c-0.202-1.265-0.411-2.529-0.624-3.793c-0.39-2.307-0.8-4.611-1.225-6.912
					c-0.82-4.435-1.632-8.865-2.568-13.278c-1.842-8.685-3.744-17.36-5.396-26.084c-0.488-2.576-0.952-5.156-1.387-7.741
					c-0.452-2.682-1.085-5.316-1.576-7.985C376.965,217.614,376.484,217.675,376.511,217.965L376.511,217.965z"/>
			</g>
			<g>
				<path style="fill:#242021;" d="M405.486,221.69c0.298,3.29,0.415,6.591,0.781,9.881c0.32,2.882,0.638,5.765,0.923,8.651
					c0.286,2.894,0.562,5.79,0.789,8.689c0.241,3.081-0.017,6.661,1.12,9.574c0.091,0.234,0.434,0.269,0.512,0
					c0.87-2.984,0.204-6.521-0.031-9.574c-0.228-2.967-0.507-5.929-0.842-8.887c-0.336-2.96-0.705-5.916-1.076-8.872
					c-0.402-3.201-1.053-6.365-1.485-9.556C406.124,221.207,405.45,221.295,405.486,221.69L405.486,221.69z"/>
			</g>
			<g>
				<path style="fill:#242021;" d="M436.822,213.349c-0.651,3.774-1.304,7.537-1.818,11.333c-0.237,1.753-0.466,3.507-0.686,5.261
					c-0.232,1.855-0.753,3.841-0.311,5.685c0.056,0.236,0.414,0.289,0.528,0.069c0.84-1.621,0.825-3.59,1.034-5.376
					c0.207-1.766,0.41-3.532,0.619-5.298c0.453-3.822,0.864-7.654,1.386-11.467C437.641,213.071,436.908,212.847,436.822,213.349
					L436.822,213.349z"/>
			</g>
			<g>
				<path style="fill:#242021;" d="M359.407,317.242c11.726-10.416,23.332-20.891,33.158-33.181
					c9.767-12.216,17.187-26.191,27.545-37.945c2.48-2.814,5.093-5.85,8.371-7.755c3.216-1.869,6.71-1.878,9.92-0.01
					c6.943,4.039,7.663,12.779,6.652,19.954c-2.287,16.225-10.097,31.247-18.104,45.31c-7.511,13.191-17.025,26.284-19.298,41.66
					c-0.262,1.774-0.384,3.516-0.336,5.31c0.025,0.94,1.35,0.908,1.438,0c0.381-3.941,0.999-7.826,2.147-11.621
					c1.149-3.798,2.752-7.454,4.516-11.004c3.585-7.215,7.992-13.977,12.032-20.937c8.382-14.439,16.648-29.741,19.499-46.379
					c1.241-7.245,1.366-15.499-4.021-21.197c-2.249-2.379-5.184-3.975-8.468-4.254c-3.46-0.294-6.683,1.3-9.329,3.391
					c-3.061,2.419-5.685,5.445-8.176,8.43c-2.558,3.064-4.951,6.264-7.255,9.523c-4.706,6.654-9.017,13.577-13.763,20.204
					c-9.382,13.1-20.809,24.701-32.566,35.663c-1.518,1.415-2.966,2.899-4.492,4.308
					C358.52,317.041,359.048,317.561,359.407,317.242L359.407,317.242z"/>
			</g>
			<g>
				<path style="fill:#242021;" d="M446.86,251.869c-0.05-0.039-0.088-0.096-0.092-0.18c-0.023-0.458-0.038-0.915-0.054-1.372
					c-0.559,1.248-1.296,2.436-1.956,3.618c-0.818,1.466-1.757,2.837-2.776,4.169c-2.031,2.654-4.52,4.95-7.912,5.615
					c-3.565,0.699-7.198-1.27-9.185-4.186c-2.176-3.192-2.72-7.308-1.906-11.041c0.805-3.691,2.526-7.012,4.2-10.358
					c-0.113,0.055-0.226,0.111-0.34,0.166c-0.301,0.146-0.59,0.306-0.883,0.462c0.036,0.124,0.005,0.274-0.113,0.345
					c-0.211,0.126-0.442,0.227-0.675,0.325c-1.561,2.511-2.66,5.461-3.394,8.184c-1.077,3.998-1.016,8.532,1.05,12.216
					c1.852,3.303,5.403,5.716,9.206,5.966c4,0.264,7.579-2.111,10.015-5.098c1.28-1.569,2.363-3.282,3.328-5.06
					c0.662-1.219,1.133-2.43,1.494-3.689C446.865,251.924,446.863,251.896,446.86,251.869z"/>
			</g>
			<g>
				<path style="fill:#242021;" d="M415.373,280.511c0.451,0.067,0.909,0.252,1.339,0.408c0.429,0.155,0.86,0.297,1.281,0.476
					c0.851,0.363,1.665,0.741,2.449,1.237c0.761,0.483,1.466,1.017,2.107,1.654c0.629,0.624,1.253,1.461,2.047,1.868
					c0.272,0.14,0.647-0.028,0.635-0.364c-0.034-0.988-0.788-1.949-1.461-2.625c-0.725-0.729-1.551-1.393-2.433-1.924
					c-0.843-0.508-1.817-0.957-2.772-1.202c-0.504-0.129-1.04-0.226-1.559-0.266c-0.52-0.04-1.022,0.037-1.537,0.032
					C415.076,279.801,414.963,280.45,415.373,280.511L415.373,280.511z"/>
			</g>
			<g>
				<path style="fill:#242021;" d="M411.097,290.219c1.601,0.377,3.183,1.062,4.595,1.904c0.706,0.421,1.375,0.892,2.042,1.37
					c0.702,0.504,1.383,0.945,2.151,1.328c0.282,0.14,0.692-0.096,0.574-0.441c-0.303-0.886-0.793-1.626-1.495-2.253
					c-0.703-0.628-1.512-1.156-2.358-1.569c-0.821-0.4-1.681-0.762-2.574-0.962c-0.918-0.206-1.866-0.303-2.806-0.329
					C410.684,289.253,410.562,290.093,411.097,290.219L411.097,290.219z"/>
			</g>
			<g>
				<path style="fill:#242021;" d="M440.26,204.686c2.085-0.35,4.396-0.165,6.485,0.112c2.055,0.273,4.058,0.931,6.12,1.105
					c0.288,0.024,0.486-0.414,0.249-0.6c-1.741-1.362-4.125-1.805-6.284-1.967c-2.335-0.176-4.477,0.23-6.744,0.717
					C439.668,204.143,439.85,204.754,440.26,204.686L440.26,204.686z"/>
			</g>
			<g>
				<path style="fill:#242021;" d="M406.025,187.857c1.254-0.291,2.404-1.017,3.603-1.479c1.325-0.511,2.694-0.939,4.073-1.282
					c1.35-0.336,2.727-0.583,4.103-0.787c1.348-0.2,2.726-0.296,4.048-0.627c0.307-0.077,0.297-0.529,0-0.611
					c-2.717-0.753-5.883-0.122-8.55,0.576c-1.402,0.367-2.76,0.839-4.083,1.432c-1.221,0.548-2.658,1.169-3.501,2.249
					C405.528,187.569,405.694,187.934,406.025,187.857L406.025,187.857z"/>
			</g>
			<g>
				<path style="fill:#242021;" d="M407.722,233.279c1.598-0.547,3.235-0.897,4.902-1.156c1.635-0.254,3.284-0.319,4.918-0.593
					c0.33-0.056,0.278-0.531,0-0.618c-1.692-0.525-3.374-0.483-5.117-0.26c-1.737,0.223-3.429,0.7-5.061,1.331
					C406.574,232.29,406.892,233.563,407.722,233.279L407.722,233.279z"/>
			</g>
			<g>
				<path style="fill:#242021;" d="M468.83,165.319c-0.725,1.584-0.902,3.498-1.1,5.215c-0.213,1.848-0.209,3.703-0.225,5.56
					c-0.029,3.448-0.223,7.538,1.348,10.722c0.084,0.17,0.332,0.077,0.339-0.092c0.07-1.803-0.331-3.668-0.508-5.461
					c-0.169-1.714-0.376-3.445-0.37-5.17c0.006-1.725,0.193-3.455,0.398-5.166c0.215-1.794,0.702-3.64,0.718-5.447
					C469.433,165.18,468.967,165.018,468.83,165.319L468.83,165.319z"/>
			</g>
			<g>
				<path style="fill:#242021;" d="M432.33,136.432c-0.699,3.284-0.644,6.651-0.549,9.995c0.051,1.776,0.233,3.559,0.71,5.276
					c0.404,1.452,1.061,3.412,2.388,4.271c0.245,0.158,0.555-0.103,0.482-0.371c-0.198-0.724-0.647-1.356-0.945-2.042
					c-0.348-0.799-0.63-1.634-0.842-2.479c-0.432-1.724-0.591-3.512-0.645-5.284c-0.095-3.089-0.248-6.197,0.034-9.28
					C432.996,136.156,432.405,136.078,432.33,136.432L432.33,136.432z"/>
			</g>
			<g>
				<path style="fill:#242021;" d="M391.561,176.211c-0.066,2.391,0.208,4.778,1.028,7.035c0.391,1.076,0.848,2.15,1.429,3.138
					c0.529,0.9,1.153,1.824,2.112,2.303c0.132,0.066,0.25-0.065,0.192-0.192c-0.423-0.938-0.981-1.815-1.44-2.737
					c-0.49-0.983-0.926-1.98-1.276-3.022c-0.709-2.112-1.241-4.301-1.424-6.525C392.149,175.817,391.572,175.806,391.561,176.211
					L391.561,176.211z"/>
			</g>
			<g>
				<path style="fill:#242021;" d="M377.285,222.62c1.969-2.151,4.18-4.138,6.583-5.792c1.18-0.812,2.41-1.551,3.681-2.209
					c1.244-0.645,2.609-1.156,3.683-2.077c0.192-0.165,0.035-0.499-0.204-0.493c-1.437,0.034-2.789,0.734-4.03,1.397
					c-1.332,0.712-2.616,1.511-3.844,2.39c-2.453,1.758-4.625,3.791-6.488,6.166C376.329,222.432,376.896,223.046,377.285,222.62
					L377.285,222.62z"/>
			</g>
			<g>
				<path style="fill:#242021;" d="M382.937,251.866c1.539-1.14,3.239-2.033,4.968-2.846c0.847-0.399,1.715-0.749,2.599-1.056
					c0.897-0.312,1.813-0.582,2.652-1.034c0.243-0.131,0.215-0.58-0.082-0.628c-1.968-0.318-4.038,0.495-5.801,1.299
					c-1.846,0.842-3.447,2.152-4.847,3.604C382.108,251.534,382.539,252.161,382.937,251.866L382.937,251.866z"/>
			</g>
			<g>
				<path style="fill:#242021;" d="M371.068,257.25c0.19-0.18,0.39-0.35,0.58-0.5c0.81-0.66,1.65-1.29,2.56-1.8
					c1.87-1.05,3.88-1.72,6.04-1.66c0.28,0.01,0.44,0.43,0.15,0.56c-1.79,0.81-3.64,1.56-5.36,2.52c-0.88,0.49-1.73,1.01-2.54,1.6
					c-0.41,0.3-0.81,0.63-1.21,0.95L371.068,257.25z"/>
			</g>
			<g>
				<path style="fill:#242021;" d="M373.978,283.08c0.4-0.25,0.81-0.49,1.24-0.69c1.22-0.59,2.61-1.2,3.99-1.08
					c0.41,0.03,0.59,0.55,0.21,0.78c-1.09,0.67-2.36,1.02-3.52,1.59c-0.6,0.3-1.2,0.62-1.77,0.97L373.978,283.08z"/>
			</g>
			<g>
				<path style="fill:#242021;" d="M304.629,429.552c4.74,3.96,11.173,6.376,17.371,5.232c0.259-0.048,0.186-0.437-0.06-0.445
					c-5.982-0.19-11.876-1.662-16.603-5.494C304.842,428.445,304.132,429.137,304.629,429.552L304.629,429.552z"/>
			</g>
			<g>
				<path style="fill:#242021;" d="M388.08,464.46c-0.324-2.285-0.972-4.526-1.356-6.805c-0.403-2.392-0.666-4.804-0.802-7.225
					c-0.26-4.63-0.115-9.29,0.497-13.888c0.621-4.665,1.732-9.261,3.088-13.763c1.359-4.509,3.397-8.696,5.611-12.837
					c1.207-2.257,2.642-4.4,4.153-6.465c1.57-2.144,3.521-4.085,4.859-6.386c0.132-0.227-0.14-0.53-0.374-0.374
					c-1.94,1.297-3.39,3.233-4.8,5.061c-1.443,1.87-2.791,3.814-4.033,5.823c-2.55,4.122-4.626,8.4-6.37,12.923
					c-3.499,9.075-5.086,18.834-4.498,28.563c0.159,2.634,0.468,5.261,0.918,7.861c0.461,2.668,0.958,5.467,2.065,7.953
					C387.325,465.544,388.162,465.037,388.08,464.46L388.08,464.46z"/>
			</g>
		</g>
		<path style="fill:#242021;" d="M455.461,168.768c-1.869,2.413-3.803,4.724-5.372,7.357c-0.753,1.264-1.44,2.567-2.058,3.902
			c-0.634,1.372-1.156,2.775-1.918,4.082c-0.134,0.23-0.432,0.063-0.4-0.169c0.417-2.963,2.128-5.859,3.676-8.375
			c1.579-2.568,3.425-5.173,5.718-7.151C455.356,168.199,455.655,168.517,455.461,168.768L455.461,168.768z"/>
		<path style="fill:#242021;" d="M416.116,142.805c-1.973,3.267-3.888,6.502-5.261,10.078c-0.645,1.679-1.193,3.395-1.641,5.137
			c-0.471,1.83-0.613,3.831-1.339,5.58c-0.103,0.249-0.427,0.207-0.46-0.062c-0.233-1.85,0.366-3.825,0.825-5.6
			c0.496-1.916,1.114-3.8,1.848-5.638c1.395-3.493,3.138-6.962,5.513-9.893C415.837,142.115,416.305,142.491,416.116,142.805
			L416.116,142.805z"/>
		<path style="fill:#242021;" d="M407.556,167.239c-0.052,0.327-0.105,0.654-0.157,0.98c-0.026,0.165-0.068,0.32-0.115,0.48
			c-0.05,0.171-0.116,0.321-0.2,0.478c-0.089,0.166-0.375,0.137-0.414-0.054c-0.035-0.174-0.057-0.337-0.056-0.514
			c0.001-0.167,0.006-0.327,0.028-0.492c0.044-0.328,0.088-0.656,0.132-0.984c0.015-0.111,0.04-0.198,0.117-0.282
			c0.085-0.093,0.214-0.126,0.335-0.11C407.479,166.776,407.594,167.002,407.556,167.239L407.556,167.239z"/>
		<path style="fill:#242021;" d="M321.084,356.057c-3.152,3.99-5.858,8.318-8.168,12.848c-1.152,2.26-2.194,4.578-3.145,6.93
			c-0.876,2.163-1.413,4.788-2.818,6.681c-0.171,0.23-0.541,0.163-0.553-0.15c-0.091-2.405,1.208-4.93,2.113-7.101
			c0.993-2.383,2.125-4.704,3.364-6.968c2.476-4.526,5.431-8.762,8.689-12.759C320.865,355.169,321.372,355.692,321.084,356.057
			L321.084,356.057z"/>
		<path style="fill:#242021;" d="M461.138,271.448c-0.56,6.323-1.216,12.636-1.755,18.961c-0.266,3.123-0.512,6.248-0.738,9.374
			c-0.113,1.564-0.232,3.127-0.343,4.691c-0.106,1.501-0.049,3.088-0.576,4.512c-0.08,0.216-0.421,0.258-0.482,0
			c-0.349-1.473-0.102-3.016-0.007-4.512c0.099-1.564,0.2-3.128,0.317-4.691c0.241-3.209,0.503-6.415,0.787-9.621
			c0.557-6.285,1.17-12.566,2.029-18.818C460.43,270.912,461.177,271.009,461.138,271.448L461.138,271.448z"/>
		<path style="fill:#242021;" d="M457.473,314.353c0.155,1.017,0.142,2.038-0.054,3.049c-0.188,0.972-0.524,2-1.227,2.722
			c-0.155,0.159-0.446-0.003-0.379-0.22c0.272-0.876,0.667-1.706,0.859-2.61c0.191-0.898,0.225-1.836,0.093-2.745
			c-0.029-0.198,0.049-0.392,0.257-0.452C457.195,314.047,457.443,314.158,457.473,314.353L457.473,314.353z"/>
		<path style="fill:#242021;" d="M375.075,301.345c-0.215-2.765-0.215-5.54-0.451-8.307c-0.118-1.381-0.248-2.76-0.426-4.135
			c-0.088-0.681-0.194-1.36-0.288-2.041c-0.101-0.73,0.01-1.336,0.097-2.067c0.023-0.194,0.298-0.324,0.408-0.111
			c0.32,0.624,0.628,1.136,0.765,1.827c0.135,0.683,0.211,1.383,0.301,2.074c0.179,1.373,0.329,2.752,0.432,4.133
			c0.212,2.832,0.339,5.803-0.025,8.626C375.821,301.855,375.116,301.878,375.075,301.345L375.075,301.345z"/>
		<path style="fill:#242021;" d="M373.46,281.897c-0.024-0.281,0.015-0.563,0.038-0.844c0.023-0.289,0.102-0.574,0.164-0.857
			c0.036-0.164,0.296-0.164,0.332,0c0.062,0.283,0.141,0.568,0.164,0.857c0.023,0.281,0.062,0.563,0.038,0.844
			c-0.016,0.191-0.157,0.376-0.367,0.367C373.614,282.254,373.477,282.102,373.46,281.897L373.46,281.897z"/>
	</g>
	<g>
		<g>
			<path style="fill:#D31145;" d="M82.931,94.724c0,0,21.379-13.655,24.138-14.207c2.759-0.552,8.69,9.655,8.138,10.897
				c-0.552,1.241-11.448,7.035-11.448,7.862c0,0.827,2.207,3.172,2.207,3.172s10.207-5.793,11.034-5.104
				c0.828,0.69,5.793,8.552,5.655,9.241c-0.138,0.69-10.207,6.483-10.345,7.586c-0.138,1.104,9.379,13.655,8.965,14.483
				c-0.414,0.828-13.379,8.69-13.931,8.552C106.793,137.069,81.552,99.276,82.931,94.724z"/>
			<g>
				<path style="fill:#242021;" d="M82.854,97.461c2.228,3.576,3.997,7.333,5.78,11.142c1.864,3.981,4.057,7.87,6.337,11.627
					c2.257,3.718,4.566,7.383,7.096,10.922c1.317,1.842,2.72,3.603,4.075,5.413c0.328,0.438,0.645,1.045,1.191,1.223
					c0.7,0.227,1.502-0.325,2.104-0.61c2.261-1.07,4.431-2.371,6.552-3.696c2.168-1.354,4.49-2.573,6.349-4.342
					c0.408-0.389-0.011-1.211-0.578-0.992c-1.958,0.757-3.645,1.946-5.405,3.076c-1.774,1.138-3.522,2.31-5.256,3.509
					c-0.764,0.528-1.457,1.203-2.231,1.708c-0.408,0.266-0.296,0.291-0.882,0.361c-0.673,0.08-0.554-0.019-0.875-0.533
					c-0.286-0.458-0.603-0.902-0.875-1.369c-1.052-1.808-2.185-3.559-3.331-5.312c-4.495-6.874-9.224-13.611-13.034-20.901
					c-2.023-3.872-3.634-8.288-6.563-11.574C83.09,96.865,82.681,97.183,82.854,97.461L82.854,97.461z"/>
			</g>
			<g>
				<path style="fill:#242021;" d="M112.025,114.133c1.063-0.051,2.076-0.997,2.93-1.562c1.043-0.691,2.086-1.379,3.123-2.078
					c1.007-0.679,2.018-1.353,3.033-2.02c0.912-0.6,2.082-1.174,2.476-2.242c0.062-0.167-0.095-0.317-0.249-0.326
					c-1.125-0.071-2.139,0.809-3.032,1.41c-1.039,0.7-2.074,1.405-3.104,2.117c-1.002,0.692-1.985,1.408-2.965,2.131
					c-0.833,0.615-2.053,1.256-2.454,2.254C111.724,113.965,111.875,114.14,112.025,114.133L112.025,114.133z"/>
			</g>
			<g>
				<path style="fill:#242021;" d="M104.114,99.8c0.415-0.234,0.721-0.627,1.074-0.944c0.411-0.369,0.811-0.747,1.26-1.072
					c0.926-0.672,1.866-1.346,2.818-1.979c0.948-0.631,1.904-1.251,2.887-1.826c1.008-0.589,2.181-0.981,3.07-1.76
					c0.357-0.313-0.02-0.971-0.471-0.81c-1.117,0.399-2.019,1.249-3,1.884c-1.045,0.676-2.099,1.344-3.166,1.983
					c-1,0.599-1.983,1.214-2.96,1.849c-0.802,0.521-1.909,1.176-2.188,2.156C103.325,99.672,103.769,99.995,104.114,99.8
					L104.114,99.8z"/>
			</g>
		</g>
		<g>
			<path style="fill:#D31145;" d="M173.294,102.218c-0.386-1.175-0.822-2.318-1.384-3.422c-1.183-2.321-2.688-4.491-4.423-6.433
				c-1.755-1.964-3.736-3.833-5.964-5.253c-1.135-0.723-2.437-1.368-3.777-1.679c0.99-1.518,1.624-3.317,1.947-5.044
				c0.675-3.609,0.433-8.022-1.959-10.987c-2.335-2.896-6.33-3.647-9.861-3.596c-4.467,0.064-8.951,1.102-13.18,2.484
				c-4.891,1.598-10.012,3.614-14.403,6.323c-0.243,0.15-0.311,0.371-0.268,0.571c-0.004,0.05,0,0.103,0.019,0.162
				c2.767,8.498,5.533,16.994,8.405,25.457c1.358,4.002,2.642,8.04,4.175,11.98c0.722,1.855,1.525,3.696,2.418,5.475
				c0.504,1.004,1.197,3.115,2.631,2.967c1.035-0.107,2.215-0.782,3.19-1.135c1.136-0.41,2.243-0.895,3.357-1.361
				c2.212-0.925,4.466-1.812,6.609-2.889c0.325-0.163,0.463-0.671,0.255-0.973c-1.869-2.708-3.229-5.922-4.438-8.97
				c-0.584-1.473-1.123-2.966-1.587-4.482c-0.431-1.408-0.741-2.861-1.206-4.258c2.802-2.96,7.541-0.527,9.625,2.235
				c1.297,1.719,2.194,3.734,2.919,5.751c0.748,2.081,1.823,4.32,2.19,6.494c0.035,0.207,0.277,0.296,0.457,0.259
				c2.578-0.527,5.021-1.621,7.46-2.579c1.367-0.537,2.758-1.011,4.127-1.545c1.002-0.39,2.99-0.793,3.311-1.982
				C174.266,104.588,173.66,103.331,173.294,102.218z M146.139,87.45c-1.195,1.9-2.961,3.055-4.927,4.042
				c-0.234,0.117-0.539,0.067-0.674-0.177c-1.191-2.151-2.22-4.361-3.176-6.627c-0.626-1.484-1.26-2.966-1.775-4.493
				c-0.362-1.071-1.354-2.707,0.175-3.314c1.993-0.791,5.049-0.417,7.025,0.258c2.096,0.716,3.846,2.207,4.394,4.417
				C147.681,83.571,147.234,85.708,146.139,87.45z"/>
			<g>
				<path style="fill:#242021;" d="M119.663,75.506c2.648,8.318,5.59,16.544,8.463,24.787c1.399,4.014,2.841,8.022,4.493,11.94
					c0.791,1.877,1.664,3.725,2.548,5.561c0.554,1.151,1.089,3.223,2.611,3.385c1.027,0.109,2.273-0.476,3.204-0.842
					c1.024-0.402,2.02-0.875,3.022-1.326c2.135-0.96,4.672-1.817,6.509-3.283c0.6-0.479-0.071-1.294-0.684-1.175
					c-1.18,0.229-2.308,0.841-3.399,1.333c-1.195,0.539-2.384,1.093-3.568,1.656c-1.194,0.567-2.382,1.177-3.617,1.65
					c-0.298,0.114-1.3,0.63-1.61,0.479c-0.278-0.136-0.577-1.258-0.704-1.544c-2.049-4.619-3.919-9.321-5.758-14.028
					c-3.729-9.543-6.922-19.284-10.62-28.838C120.343,74.72,119.48,74.93,119.663,75.506L119.663,75.506z"/>
			</g>
			<g>
				<path style="fill:#242021;" d="M144.193,97.392c0.41-0.083,0.758-0.344,1.142-0.508c0.45-0.193,0.93-0.329,1.417-0.391
					c0.853-0.107,1.716-0.004,2.529,0.264c1.814,0.598,3.288,1.899,4.372,3.445c1.196,1.705,1.993,3.713,2.767,5.635
					c0.42,1.045,0.742,2.145,1.1,3.213c0.279,0.832,0.483,2.075,1.315,2.536c0.141,0.078,0.276-0.001,0.333-0.135
					c0.438-1.039-0.45-2.568-0.78-3.552c-0.395-1.178-0.759-2.344-1.107-3.534c-0.625-2.142-1.725-4.318-3.166-6.024
					c-1.31-1.551-3.082-2.819-5.121-3.134c-0.951-0.147-1.922-0.133-2.861,0.088c-0.833,0.196-2.047,0.619-2.443,1.442
					C143.518,97.096,143.8,97.472,144.193,97.392L144.193,97.392z"/>
			</g>
			<g>
				<path style="fill:#242021;" d="M157.811,85.606c0.758-0.595,1.187-1.512,1.562-2.385c0.394-0.918,0.702-1.874,0.907-2.852
					c0.199-0.949,0.332-1.932,0.288-2.903c-0.021-0.479-0.129-0.949-0.196-1.422c-0.071-0.494-0.149-0.851-0.476-1.234
					c-0.128-0.149-0.348-0.05-0.405,0.107c-0.158,0.441-0.113,0.797-0.09,1.259c0.023,0.461-0.034,0.917-0.055,1.377
					c-0.04,0.894-0.099,1.783-0.274,2.663c-0.175,0.88-0.433,1.744-0.785,2.57c-0.353,0.83-0.851,1.59-1.104,2.456
					C157.069,85.634,157.538,85.82,157.811,85.606L157.811,85.606z"/>
			</g>
			<g>
				<path style="fill:#242021;" d="M160.114,73.07c-0.037-0.369-0.101-0.739-0.28-1.068c-0.084-0.155-0.183-0.297-0.313-0.417
					c-0.071-0.065-0.147-0.14-0.232-0.184c-0.104-0.053-0.218-0.066-0.333-0.073c-0.149-0.01-0.293,0.114-0.331,0.252
					c-0.007,0.025-0.014,0.049-0.022,0.074c-0.035,0.11-0.031,0.206-0.008,0.318c0.017,0.08,0.032,0.16,0.044,0.241
					c-0.007-0.051-0.014-0.101-0.021-0.152c0.025,0.189,0.068,0.384,0.123,0.568c0.044,0.146,0.076,0.294,0.097,0.444
					c-0.008-0.057-0.015-0.113-0.023-0.17c0.007,0.055,0.013,0.111,0.017,0.167c0.013,0.172,0.063,0.328,0.188,0.453
					c0.111,0.111,0.293,0.195,0.453,0.188c0.166-0.007,0.337-0.062,0.453-0.188C160.035,73.405,160.131,73.236,160.114,73.07
					L160.114,73.07z"/>
			</g>
			<g>
				<path style="fill:#242021;" d="M136.077,77.061c3.629-0.559,7.969-0.111,10.211,3.171c1.065,1.559,1.134,3.393,0.472,5.134
					c-0.329,0.865-0.836,1.658-1.379,2.403c-0.523,0.718-1.295,1.38-1.568,2.238c-0.066,0.209,0.143,0.379,0.336,0.336
					c0.961-0.213,1.768-1.17,2.354-1.919c0.692-0.885,1.235-1.857,1.563-2.934c0.597-1.96,0.44-4.156-0.694-5.892
					c-1.048-1.605-2.731-2.638-4.549-3.152c-2.31-0.653-4.577-0.364-6.876,0.148C135.638,76.663,135.776,77.108,136.077,77.061
					L136.077,77.061z"/>
			</g>
		</g>
		<g>
			<path style="fill:#D31145;" d="M213.934,98.603c-1.13-4.098-1.674-8.306-2.544-12.458c-0.067-0.32-0.371-0.468-0.66-0.503
				c-3.647-0.442-7.115-0.092-10.71,0.616c-1.714,0.338-3.418,0.723-5.13,1.071c-0.456-1.859-0.912-3.713-1.338-5.575
				c0.618-0.084,1.236-0.233,1.814-0.351c1.271-0.261,2.543-0.519,3.814-0.783c0.844-0.175,1.978-0.23,2.688-0.775
				c0.757-0.581,0.495-1.468,0.282-2.26c-0.32-1.187-0.422-2.422-0.69-3.623c-0.19-0.85-0.221-2.323-0.986-2.895
				c-0.761-0.569-1.948-0.043-2.752,0.152c-1.198,0.29-2.395,0.587-3.592,0.881c-0.742,0.182-1.486,0.35-2.232,0.514
				c-0.292-2.05-0.538-4.107-0.729-6.166c2.357-0.429,4.767-0.71,7.141-0.977c2.501-0.282,5.015-0.671,7.526-0.835
				c0.366-0.024,0.778-0.319,0.736-0.736c-0.44-4.371-0.909-8.744-1.354-13.117c-0.049-0.482-0.407-0.763-0.889-0.677
				c-5.485,0.975-10.97,1.95-16.456,2.925c-5.475,0.973-10.998,1.811-16.419,3.059c-0.077,0.018-0.14,0.054-0.192,0.098
				c-0.257-0.021-0.513,0.135-0.511,0.466c0.015,1.827,0.944,3.806,1.453,5.556c0.547,1.882,1.068,3.771,1.562,5.668
				c1.011,3.884,1.91,7.81,2.75,11.735c1.691,7.911,2.952,15.917,3.976,23.94c0.09,0.708,0.917,0.918,1.333,0.595
				c5.18-0.935,10.388-1.722,15.596-2.479c5.296-0.77,10.662-1.18,15.936-2.05C213.798,99.546,214.042,98.997,213.934,98.603z"/>
			<g>
				<path style="fill:#242021;" d="M170.506,57.438c0.962,3.833,2.297,7.563,3.301,11.39c1.004,3.828,1.886,7.706,2.562,11.606
					c0.665,3.837,1.254,7.694,1.883,11.538c0.327,1.999,0.593,4.011,0.865,6.018c0.229,1.69,0.312,4.047,1.313,5.463
					c0.12,0.169,0.358,0.14,0.428-0.056c0.564-1.563,0.065-3.743-0.165-5.361c-0.285-2.006-0.577-4.011-0.866-6.016
					c-0.58-4.024-1.239-7.986-2.09-11.962c-0.846-3.95-1.711-7.889-2.795-11.783c-1.048-3.766-2.134-7.569-3.937-11.047
					C170.86,56.946,170.432,57.144,170.506,57.438L170.506,57.438z"/>
			</g>
			<g>
				<path style="fill:#242021;" d="M193.827,82.311c1.882,0.068,3.69-0.463,5.495-0.943c0.869-0.231,1.858-0.437,2.636-0.895
					c0.672-0.395,1.464-1.176,0.981-2.002c-0.179-0.307-0.612-0.289-0.795,0c-0.168,0.265-0.281,0.551-0.591,0.679
					c-0.309,0.128-0.698,0.159-1.021,0.252c-0.768,0.221-1.532,0.447-2.296,0.679c-1.519,0.461-3.051,0.809-4.52,1.416
					C193.304,81.668,193.33,82.293,193.827,82.311L193.827,82.311z"/>
			</g>
			<g>
				<path style="fill:#242021;" d="M191.318,66.966c1.591,0.117,3.277-0.232,4.86-0.397c1.519-0.158,3.037-0.317,4.555-0.477
					c0.745-0.079,6.965-0.217,6.208-2.018c-0.102-0.242-0.322-0.319-0.571-0.28c-0.239,0.037-0.437,0.228-0.647,0.329
					c-0.274,0.133-0.571,0.201-0.87,0.249c-1.458,0.236-2.955,0.334-4.424,0.5c-1.518,0.172-3.037,0.343-4.555,0.513
					c-1.535,0.172-3.198,0.191-4.685,0.629C190.648,66.174,190.782,66.927,191.318,66.966L191.318,66.966z"/>
			</g>
			<g>
				<path style="fill:#242021;" d="M182.47,104.623c4.795-0.961,9.728-1.315,14.592-1.76c2.27-0.207,4.536-0.454,6.793-0.769
					c2.033-0.284,4.573-0.464,6.208-1.838c0.152-0.128,0.068-0.402-0.117-0.444c-2.012-0.457-4.32,0.28-6.314,0.592
					c-2.494,0.391-5.004,0.669-7.51,0.968c-4.693,0.561-9.307,1.186-13.872,2.452C181.732,103.968,181.952,104.727,182.47,104.623
					L182.47,104.623z"/>
			</g>
			<g>
				<path style="fill:#242021;" d="M212.202,100.305c0.217-0.055,0.443-0.098,0.645-0.198c0.103-0.051,0.224-0.1,0.305-0.183
					c0.053-0.055,0.105-0.113,0.155-0.17c0.128-0.146,0.116-0.372-0.061-0.477c-0.063-0.037-0.126-0.073-0.191-0.107
					c-0.109-0.058-0.222-0.067-0.341-0.084c-0.137-0.02-0.26-0.024-0.396-0.014c-0.093,0.007-0.186,0.014-0.28,0.021
					c-0.111,0-0.215,0.029-0.312,0.084c-0.042,0.032-0.083,0.064-0.125,0.096c-0.076,0.077-0.129,0.168-0.159,0.272
					c-0.026,0.082-0.029,0.164-0.011,0.246c0.022,0.168,0.098,0.299,0.232,0.403C211.82,100.316,212.008,100.354,212.202,100.305
					L212.202,100.305z"/>
			</g>
		</g>
		<g>
			<path style="fill:#D31145;" d="M253.985,98.188c-0.544-4.216-0.492-8.458-0.771-12.692c-0.021-0.326-0.301-0.515-0.583-0.59
				c-3.549-0.95-7.031-1.09-10.691-0.893c-1.744,0.094-3.486,0.237-5.229,0.341c-0.191-1.905-0.383-3.804-0.542-5.708
				c0.624,0.004,1.257-0.057,1.845-0.093c1.295-0.08,2.591-0.157,3.886-0.24c0.86-0.055,1.991,0.049,2.77-0.39
				c0.831-0.469,0.696-1.384,0.596-2.198c-0.15-1.22-0.078-2.457-0.175-3.684c-0.069-0.868,0.107-2.331-0.57-3.005
				c-0.673-0.67-1.922-0.316-2.746-0.236c-1.227,0.12-2.453,0.245-3.68,0.368c-0.76,0.076-1.521,0.138-2.282,0.196
				c-0.001-2.071,0.043-4.142,0.144-6.208c2.394-0.095,4.819-0.034,7.208,0.034c2.516,0.072,5.06,0.039,7.569,0.229
				c0.366,0.028,0.815-0.207,0.832-0.626c0.178-4.389,0.327-8.785,0.5-13.177c0.019-0.485-0.296-0.813-0.785-0.795
				c-5.568,0.196-11.135,0.392-16.703,0.587c-5.558,0.196-11.143,0.25-16.686,0.725c-0.079,0.007-0.146,0.033-0.204,0.07
				c-0.252-0.057-0.527,0.062-0.571,0.389c-0.241,1.811,0.401,3.901,0.659,5.705c0.277,1.94,0.528,3.884,0.751,5.831
				c0.456,3.987,0.796,8.001,1.076,12.005c0.565,8.07,0.69,16.174,0.578,24.261c-0.01,0.714,0.779,1.038,1.236,0.776
				c5.26-0.199,10.526-0.247,15.79-0.266c5.351-0.019,10.722,0.328,16.066,0.206C253.718,99.102,254.037,98.593,253.985,98.188z"/>
			<g>
				<path style="fill:#242021;" d="M216.761,51.337c0.415,3.93,1.213,7.81,1.67,11.741c0.457,3.931,0.786,7.894,0.908,11.85
					c0.12,3.892,0.162,7.794,0.245,11.688c0.043,2.025,0.024,4.054,0.012,6.079c-0.01,1.706-0.259,4.051,0.534,5.593
					c0.095,0.184,0.334,0.189,0.432,0.005c0.778-1.468,0.589-3.697,0.589-5.331c0-2.026-0.009-4.052-0.014-6.078
					c-0.01-4.065-0.106-8.081-0.391-12.137c-0.283-4.03-0.587-8.051-1.114-12.059c-0.51-3.876-1.051-7.794-2.348-11.49
					C217.181,50.9,216.73,51.035,216.761,51.337L216.761,51.337z"/>
			</g>
			<g>
				<path style="fill:#242021;" d="M236.363,79.236c1.854,0.331,3.718,0.059,5.573-0.163c0.893-0.107,1.901-0.172,2.736-0.517
					c0.721-0.297,1.614-0.959,1.252-1.844c-0.134-0.329-0.565-0.372-0.787-0.112c-0.204,0.239-0.355,0.507-0.681,0.59
					c-0.323,0.083-0.714,0.06-1.046,0.106c-0.791,0.111-1.58,0.228-2.369,0.35c-1.569,0.244-3.134,0.373-4.674,0.768
					C235.935,78.526,235.872,79.148,236.363,79.236L236.363,79.236z"/>
			</g>
			<g>
				<path style="fill:#242021;" d="M236.031,63.691c1.559,0.339,3.277,0.23,4.867,0.288c1.526,0.057,3.051,0.112,4.577,0.167
					c0.749,0.027,6.927,0.762,6.429-1.127c-0.067-0.253-0.274-0.361-0.526-0.357c-0.242,0.003-0.465,0.164-0.687,0.235
					c-0.29,0.093-0.594,0.119-0.896,0.125c-1.477,0.03-2.973-0.084-4.45-0.125c-1.527-0.043-3.055-0.086-4.582-0.131
					c-1.544-0.045-3.193-0.259-4.727-0.034C235.479,62.812,235.506,63.577,236.031,63.691L236.031,63.691z"/>
			</g>
			<g>
				<path style="fill:#242021;" d="M221.988,99.734c4.882-0.279,9.816,0.063,14.695,0.305c2.276,0.113,4.555,0.187,6.834,0.191
					c2.052,0.004,4.592,0.183,6.405-0.949c0.168-0.105,0.124-0.388-0.054-0.456c-1.928-0.735-4.316-0.329-6.335-0.299
					c-2.524,0.037-5.049-0.04-7.572-0.095c-4.725-0.103-9.381-0.132-14.078,0.482C221.349,98.982,221.46,99.764,221.988,99.734
					L221.988,99.734z"/>
			</g>
			<g>
				<path style="fill:#242021;" d="M252.031,99.63c0.223-0.024,0.453-0.035,0.667-0.105c0.109-0.036,0.236-0.068,0.327-0.139
					c0.06-0.047,0.119-0.097,0.177-0.147c0.147-0.127,0.167-0.353,0.006-0.481c-0.057-0.045-0.115-0.09-0.174-0.133
					c-0.1-0.072-0.21-0.097-0.326-0.131c-0.132-0.039-0.254-0.061-0.39-0.069c-0.093-0.006-0.187-0.012-0.28-0.018
					c-0.11-0.015-0.217-0.002-0.32,0.04c-0.046,0.026-0.091,0.052-0.137,0.078c-0.087,0.066-0.152,0.148-0.195,0.247
					c-0.037,0.078-0.052,0.158-0.046,0.242c-0.001,0.169,0.055,0.31,0.173,0.431C251.652,99.587,251.832,99.651,252.031,99.63
					L252.031,99.63z"/>
			</g>
		</g>
		<g>
			<path style="fill:#D31145;" d="M304.203,67.877c-0.58-3.379-1.927-6.735-4.036-9.452c-2.222-2.861-5.437-4.426-8.735-5.734
				c-3.894-1.545-8.016-2.407-12.158-2.956c-4.249-0.563-8.603-0.853-12.879-0.514c-0.198-0.164-0.56-0.143-0.606,0.166
				c-0.596,3.997-0.809,8.04-1.121,12.068c-0.319,4.113-0.635,8.227-0.951,12.341c-0.316,4.117-0.758,8.224-1.105,12.338
				c-0.175,2.081-0.353,4.161-0.499,6.245c-0.067,0.954-0.156,1.909-0.199,2.865c-0.031,0.677-0.114,1.407,0.098,2.045
				c-0.116,0.401,0.032,0.867,0.56,1c3.777,0.957,7.65,1.377,11.54,1.482c3.651,0.098,7.341,0.047,10.95-0.567
				c6.854-1.166,12.637-4.958,15.824-11.197C303.991,81.928,305.363,74.638,304.203,67.877z M288.977,81.103
				c-2.192,3.543-5.855,6.321-10.053,6.896c-0.663,0.091-1.684,0.33-2.186-0.274c-0.553-0.666-0.217-2.042-0.161-2.809
				c0.206-2.843,0.422-5.687,0.73-8.521c0.574-5.275,1.412-17.229,2.207-17.294c5.365-0.443,9.431,3.92,10.964,8.682
				C291.885,72.152,291.401,77.184,288.977,81.103z"/>
			<g>
				<path style="fill:#242021;" d="M265.537,49.352c-0.487,2.626-0.591,5.331-0.785,7.99c-0.198,2.72-0.454,5.408-0.725,8.125
					c-0.548,5.498-1.027,10.996-1.457,16.504c-0.212,2.71-0.411,5.42-0.582,8.133c-0.078,1.231-0.101,2.465-0.161,3.697
					c-0.033,0.664-0.008,1.31-0.004,1.972c0.004,0.626-0.168,1.299-0.106,1.918c0.17,1.696,3.379,1.865,4.606,2.089
					c2.402,0.438,4.829,0.696,7.27,0.761c2.825,0.076,5.652-0.08,8.452-0.457c2.845-0.384,5.855-0.873,8.534-1.935
					c0.671-0.266,0.429-1.261-0.303-1.1c-2.333,0.513-4.603,1.198-6.969,1.581c-2.373,0.384-4.773,0.592-7.176,0.637
					c-2.383,0.045-4.766-0.084-7.136-0.336c-1.17-0.124-2.332-0.3-3.493-0.489c-0.609-0.099-1.214-0.22-1.822-0.321
					c-0.853-0.141-1.262-0.453-1.332-1.361c-0.048-0.611,0.239-1.351,0.318-1.972c0.073-0.572,0.109-1.151,0.163-1.726
					c0.125-1.316,0.277-2.627,0.391-3.944c0.222-2.545,0.405-5.093,0.602-7.64c0.381-4.926,0.761-9.851,1.109-14.78
					c0.204-2.882,0.402-5.746,0.705-8.618c0.301-2.853,0.74-5.741,0.746-8.614C266.382,48.996,265.628,48.863,265.537,49.352
					L265.537,49.352z"/>
			</g>
			<g>
				<path style="fill:#242021;" d="M295.159,95.207c1.895-0.812,3.427-2.374,4.578-4.049c0.659-0.959,1.211-1.976,1.725-3.019
					c0.261-0.53,0.517-1.063,0.758-1.602c0.12-0.268,0.274-0.553,0.327-0.845c0.049-0.269,0.013-0.555,0.024-0.828
					c0.01-0.247-0.289-0.328-0.454-0.188c-0.451,0.385-0.745,0.665-1.014,1.208c-0.249,0.501-0.484,1.009-0.728,1.512
					c-0.483,0.997-0.988,1.992-1.562,2.94c-1.038,1.713-2.298,3.215-3.971,4.332C294.501,94.896,294.795,95.363,295.159,95.207
					L295.159,95.207z"/>
			</g>
			<g>
				<path style="fill:#242021;" d="M303.233,83.839c0.063-0.159,0.126-0.318,0.189-0.477c0.048-0.121,0.053-0.252,0.068-0.381
					c0.004-0.04,0.011-0.08,0.013-0.121c0.005-0.098-0.035-0.22-0.088-0.305c-0.009-0.014-0.018-0.026-0.025-0.041
					c0.017,0.041,0.034,0.081,0.051,0.122c-0.007-0.032-0.013-0.065-0.025-0.095c-0.022-0.077-0.061-0.144-0.117-0.201
					c-0.057-0.056-0.124-0.095-0.201-0.117c-0.081-0.022-0.161-0.022-0.242,0c-0.077,0.022-0.144,0.061-0.201,0.117
					c-0.026,0.02-0.046,0.046-0.068,0.07c0.034-0.027,0.069-0.053,0.104-0.08c-0.014,0.01-0.027,0.016-0.042,0.024
					c-0.084,0.044-0.179,0.132-0.222,0.214c-0.017,0.033-0.029,0.068-0.043,0.101c-0.017,0.041-0.034,0.081-0.052,0.122
					c-0.025,0.059-0.061,0.116-0.072,0.179c-0.004,0.022-0.006,0.045-0.01,0.068c-0.024,0.17-0.047,0.34-0.071,0.51
					c-0.023,0.073-0.026,0.145-0.01,0.218c0.003,0.073,0.025,0.141,0.065,0.203c0.066,0.114,0.196,0.222,0.327,0.251
					c0.14,0.032,0.297,0.025,0.421-0.055c0.037-0.028,0.074-0.057,0.111-0.085C303.161,84.012,303.208,83.932,303.233,83.839
					L303.233,83.839z"/>
			</g>
			<g>
				<path style="fill:#242021;" d="M279.463,59.351c0.859,0.209,1.733,0.234,2.586,0.507c0.879,0.281,1.722,0.692,2.504,1.18
					c1.582,0.987,2.935,2.373,3.881,3.981c1.024,1.741,1.608,3.859,1.847,5.853c0.123,1.025,0.15,2.062,0.109,3.093
					c-0.021,0.511-0.087,1.039-0.022,1.548c0.063,0.485,0.277,0.92,0.361,1.405c0.014,0.08,0.135,0.09,0.171,0.022
					c0.251-0.474,0.624-0.88,0.769-1.403c0.153-0.551,0.16-1.161,0.172-1.727c0.024-1.097-0.042-2.192-0.193-3.278
					c-0.327-2.338-1.096-4.485-2.395-6.457c-1.088-1.653-2.532-3.082-4.228-4.107c-1.531-0.925-3.74-1.801-5.561-1.475
					C279.023,58.571,279.053,59.252,279.463,59.351L279.463,59.351z"/>
			</g>
		</g>
		<g>
			<path style="fill:#D31145;" d="M351.811,70.795c-4.503-9.986-16.716-13.9-26.805-10.517c-2.217,0.743-4.328,1.807-6.247,3.144
				c-10.113,7.049-14.097,22.25-9.284,33.656c4.038,9.569,14.618,14.356,24.657,12.262c5.135-1.071,9.381-4.639,12.551-8.678
				c3.074-3.917,5.18-8.868,6.344-13.699C354.303,81.668,354.065,75.793,351.811,70.795z M329.379,98.379
				c-5.647,1.863-6.844-6.493-6.723-10.163c0.129-3.934,1.221-7.838,3.167-11.261c1.711-3.01,4.993-7.471,8.924-5.017
				c4.934,3.081,5.174,10.193,3.895,15.222C337.412,91.99,334.305,96.754,329.379,98.379z"/>
			<g>
				<path style="fill:#242021;" d="M332.862,71.413c1.403,0.579,2.722,1.274,3.748,2.414c1.121,1.245,1.763,2.77,2.099,4.401
					c0.75,3.643-0.415,7.177-0.751,10.763c-0.016,0.169,0.224,0.258,0.333,0.138c1.416-1.557,1.606-3.659,1.844-5.679
					c0.25-2.125,0.293-4.288-0.166-6.389c-0.663-3.041-3.567-6.975-7.108-6.16C332.58,70.966,332.642,71.323,332.862,71.413
					L332.862,71.413z"/>
			</g>
			<g>
				<path style="fill:#242021;" d="M336.245,91.346c-0.004,0.055-0.009,0.11-0.016,0.165c0.006-0.047,0.013-0.095,0.019-0.142
					c-0.01,0.072-0.023,0.143-0.039,0.213c-0.008,0.033-0.017,0.066-0.025,0.1c-0.031,0.119-0.018,0.208-0.002,0.325
					c-0.006-0.041-0.011-0.083-0.017-0.124c0.001,0.011,0.003,0.023,0.004,0.034c0.005-0.04,0.011-0.079,0.016-0.119
					c-0.009,0.052-0.025,0.101-0.037,0.152c-0.012,0.05-0.021,0.106-0.018,0.158c0.001,0.024,0.003,0.048,0.001,0.072
					c0.004-0.03,0.008-0.061,0.012-0.091c-0.033,0.126-0.089,0.245-0.095,0.376c-0.006,0.146,0.139,0.228,0.267,0.203
					c0.138-0.026,0.255-0.133,0.362-0.218c0.01-0.008,0.046-0.037,0.001-0.001c-0.043,0.035-0.004,0.009,0.01,0.002
					c0.049-0.024,0.09-0.05,0.132-0.09c0.041-0.039,0.074-0.086,0.111-0.129c-0.03,0.023-0.06,0.047-0.09,0.07
					c0.102-0.066,0.192-0.139,0.252-0.247c0.027-0.048,0.052-0.098,0.076-0.148c0.063-0.134,0.12-0.272,0.164-0.413
					c0.046-0.143,0.012-0.298-0.056-0.427c-0.081-0.152-0.24-0.243-0.405-0.265c-0.153-0.021-0.288,0.015-0.41,0.109
					C336.32,91.021,336.256,91.167,336.245,91.346L336.245,91.346z"/>
			</g>
			<g>
				<path style="fill:#242021;" d="M319.809,62.388c-1.514,0.418-2.745,2.047-3.81,3.13c-1.127,1.146-2.173,2.38-3.106,3.689
					c-2.038,2.859-3.706,5.966-4.64,9.362c-0.965,3.51-1.365,7.54-0.99,11.158c0.188,1.816,0.507,3.673,0.946,5.445
					c0.414,1.67,0.995,3.609,2.297,4.802c0.109,0.1,0.336,0.039,0.32-0.133c-0.15-1.644-0.953-3.207-1.474-4.761
					c-0.617-1.843-1.005-3.628-1.176-5.568c-0.325-3.699-0.04-7.132,1.056-10.673c0.964-3.111,2.346-6.187,4.278-8.819
					c0.98-1.335,2.05-2.597,3.227-3.762c1.099-1.088,2.761-1.887,3.591-3.192C320.549,62.721,320.187,62.284,319.809,62.388
					L319.809,62.388z"/>
			</g>
			<g>
				<path style="fill:#242021;" d="M314.238,104.242c0.261,0.259,0.513,0.533,0.785,0.779c0.133,0.12,0.284,0.224,0.426,0.334
					c0.092,0.071,0.186,0.124,0.287,0.179c0.055,0.03,0.115,0.064,0.177,0.077c0.043,0.009,0.089,0.012,0.133,0.018
					c0.083,0.011,0.158,0.005,0.22-0.058c0.056-0.056,0.081-0.144,0.058-0.221c-0.012-0.039-0.022-0.078-0.035-0.116
					c-0.026-0.077-0.064-0.13-0.113-0.193c-0.056-0.072-0.109-0.152-0.173-0.218c-0.063-0.066-0.136-0.126-0.203-0.188
					c-0.08-0.074-0.158-0.152-0.245-0.219c-0.303-0.234-0.62-0.452-0.93-0.677c-0.129-0.094-0.324-0.033-0.413,0.082
					C314.117,103.946,314.124,104.128,314.238,104.242L314.238,104.242z"/>
			</g>
			<g>
				<path style="fill:#242021;" d="M334.504,109.326c5.034-1.414,9.277-4.602,12.597-8.598c1.645-1.979,3.143-4.167,4.26-6.491
					c0.553-1.151,0.634-2.305,0.925-3.523c0.185-0.777,0.718-1.046,0.961-1.714c0.208-0.575,0.16-1.017-0.08-1.563
					c-0.082-0.185-0.339-0.174-0.466-0.06c-1.108,0.996-0.319,2.127-0.866,3.315c-0.503,1.094-1.231,2.073-1.737,3.174
					c-1.049,2.282-2.368,4.399-3.985,6.322c-3.173,3.773-7.328,6.678-11.73,8.852C334.223,109.12,334.336,109.373,334.504,109.326
					L334.504,109.326z"/>
			</g>
			<g>
				<path style="fill:#242021;" d="M348.471,66.432c0.911,0.853,1.739,1.889,2.344,2.981c0.148,0.267,0.268,0.55,0.419,0.815
					c0.159,0.278,0.347,0.534,0.492,0.82c0.298,0.588,0.518,1.194,0.657,1.839c0.015,0.07,0.124,0.053,0.123-0.017
					c-0.008-0.658-0.059-1.321-0.172-1.97c-0.059-0.332-0.099-0.674-0.208-0.993c-0.117-0.346-0.297-0.664-0.484-0.977
					c-0.725-1.209-1.663-2.164-2.886-2.866C348.528,65.934,348.273,66.247,348.471,66.432L348.471,66.432z"/>
			</g>
		</g>
		<g>
			<path style="fill:#D31145;" d="M417.786,98.757c-0.261-0.68-1.003-1.448-1.556-1.898c-0.225-0.183-1.928-1.054-1.928-1.26
				c-1.714-1.113-3.508-2.092-5.369-2.938c-2.845-1.293-6.761-3.548-9.752-1.609c-1.507,0.977-2.749,2.452-3.981,3.74
				c-1.46,1.528-2.892,3.081-4.303,4.655c-2.029,2.263-4.291,4.549-6.181,7.027c0.227-0.874,0.427-1.755,0.655-2.609
				c0.549-2.056,1.038-4.135,1.684-6.163c0.695-2.18,1.206-4.432,1.749-6.654c0.493-2.013,1.229-4.135,1.457-6.194
				c0.189-1.703-1.368-2.29-2.655-2.919c-1.986-0.969-3.942-1.992-5.897-3.022c-1.885-0.993-3.748-2.062-5.716-2.884
				c-1.672-0.698-4.512-1.965-5.633,0.148c-0.581,1.095-1.177,2.183-1.736,3.289c-0.36,0.712-1.495,2.224-1.495,2.996
				c-1.104,2.127-2.234,4.241-3.392,6.34c-2.299,4.17-4.715,8.269-7.19,12.336c-1.177,1.935-2.374,3.874-3.35,5.921
				c-0.471,0.988-0.944,2.002-1.302,3.038c-0.242,0.7-0.709,1.744-0.551,2.494c0.298,1.413,2.629,1.837,3.756,2.275
				c2.44,0.949,4.858,1.886,7.397,2.529c0.302,0.076,0.709-0.045,0.854-0.347c1.71-3.583,3.61-7.053,5.465-10.563
				c1.592-3.01,3.358-5.802,5.536-8.399c-0.051,0.725-0.218,1.507-0.262,2.169c-0.086,1.314-0.315,2.599-0.531,3.895
				c-0.361,2.162-0.663,4.332-0.978,6.501c-0.324,2.232-0.846,4.452-1.269,6.669c-0.197,1.033-0.394,2.065-0.567,3.102
				c-0.145,0.865-0.437,1.856-0.328,2.745c0.197,1.61,1.995,2.2,3.226,2.883c1.018,0.565,2.058,1.082,3.098,1.607
				c0.755,0.381,1.622,0.996,2.474,1.106c0.676,0.088,1.102-0.322,1.545-0.775c0.864-0.882,1.68-1.811,2.544-2.694
				c1.553-1.59,3.124-3.161,4.668-4.76c2.747-2.847,5.489-5.698,8.227-8.554c-1.795,4.444-3.675,8.847-5.205,13.404
				c-0.441,1.313-0.851,2.644-1.253,3.969c-0.292,0.963-0.82,2.156-0.617,3.187c0.186,0.944,0.939,1.27,1.73,1.673
				c1.287,0.655,2.505,1.426,3.809,2.06c1.143,0.555,2.299,1.095,3.492,1.538c0.669,0.248,1.598,0.861,2.337,0.559
				c0.906-0.369,1.381-2.095,1.806-2.898c3.262-6.16,6.532-12.195,9.275-18.618c1.457-3.41,2.829-6.856,4.079-10.347
				c0.639-1.784,1.246-3.58,1.815-5.387C417.74,100.256,418.103,99.596,417.786,98.757z"/>
			<g>
				<path style="fill:#242021;" d="M370.202,76.938c-0.525,0.665-1.156,1.211-1.632,1.925c-0.642,0.963-1.196,1.989-1.78,2.987
					c-1.086,1.859-2.139,3.736-3.194,5.613c-2.11,3.753-4.246,7.491-6.342,11.252c-1.008,1.808-2.015,3.617-3.023,5.425
					c-0.92,1.652-1.948,3.293-2.657,5.05c-0.456,1.13-1.138,3.068-0.367,4.213c0.586,0.87,1.986,1.313,2.897,1.773
					c1.423,0.719,2.934,1.296,4.434,1.836c1.341,0.483,2.81,1.072,4.256,0.9c0.465-0.056,0.715-0.657,0.252-0.932
					c-1.245-0.741-2.735-0.993-4.125-1.357c-1.642-0.43-3.284-0.891-4.891-1.438c-0.865-0.294-2.147-0.699-2.202-1.812
					c-0.059-1.199,0.787-2.668,1.316-3.693c1.061-2.057,2.267-4.046,3.404-6.062c2.4-4.256,4.767-8.529,7.152-12.793
					c1.212-2.168,2.448-4.325,3.623-6.513c0.548-1.021,1.113-2.036,1.647-3.065c0.567-1.093,0.826-2.166,1.245-3.302
					C370.218,76.939,370.207,76.932,370.202,76.938L370.202,76.938z"/>
			</g>
			<g>
				<path style="fill:#242021;" d="M374.098,98.197c-0.655,2.14-0.923,4.46-1.362,6.657c-0.428,2.143-0.965,4.246-1.315,6.407
					c-0.333,2.056-0.613,4.122-0.855,6.19c-0.239,2.044-0.694,4.337-0.106,6.342c0.05,0.169,0.332,0.243,0.414,0.054
					c0.786-1.813,0.775-3.966,0.996-5.915c0.257-2.272,0.597-4.53,0.934-6.792c0.324-2.172,0.546-4.355,0.91-6.52
					c0.353-2.097,0.926-4.208,1.105-6.326C374.855,97.87,374.215,97.815,374.098,98.197L374.098,98.197z"/>
			</g>
			<g>
				<path style="fill:#242021;" d="M395.426,112.415c-2.227,4.476-3.802,9.37-5.244,14.149c-0.36,1.192-0.722,2.387-1.014,3.597
					c-0.209,0.865-0.591,1.853-0.37,2.749c0.248,1.007,1.158,1.692,1.923,2.305c0.681,0.546,1.345,1.186,2.266,0.974
					c0.152-0.035,0.242-0.21,0.202-0.356c-0.233-0.851-1.01-1.148-1.684-1.635c-0.414-0.299-0.982-0.664-1.323-1.058
					c-0.503-0.582-0.374-0.966-0.185-1.611c0.617-2.11,1.216-4.226,1.88-6.322c1.331-4.202,3.045-8.235,4.563-12.365
					C396.655,112.256,395.705,111.854,395.426,112.415L395.426,112.415z"/>
			</g>
			<g>
				<path style="fill:#242021;" d="M393.482,136.652c0.119,0.055,0.231,0.124,0.336,0.203c-0.035-0.027-0.069-0.054-0.104-0.08
					c0.083,0.065,0.16,0.136,0.251,0.191c0.055,0.034,0.108,0.07,0.159,0.109c-0.033-0.025-0.066-0.051-0.099-0.077
					c0.076,0.059,0.142,0.12,0.24,0.143c0.127,0.03,0.271,0.02,0.384-0.053c-0.11,0.014-0.219,0.029-0.329,0.043
					c0.023,0.008,0.047,0.02,0.072,0.025c0.121,0.027,0.233,0.008,0.331-0.068c0.094-0.073,0.149-0.178,0.15-0.298
					c0-0.06-0.015-0.124-0.027-0.184c-0.014,0.11-0.029,0.219-0.043,0.329c0.025-0.034,0.045-0.087,0.058-0.127
					c0.025-0.077,0.02-0.181-0.001-0.26c-0.014-0.051-0.037-0.105-0.069-0.147c-0.046-0.062-0.093-0.123-0.142-0.182
					c-0.076-0.09-0.163-0.164-0.265-0.225c-0.164-0.097-0.344-0.174-0.526-0.228c-0.114-0.034-0.272-0.016-0.373,0.049
					c-0.033,0.025-0.065,0.051-0.098,0.076c-0.047,0.044-0.081,0.096-0.1,0.156c-0.041,0.096-0.057,0.213-0.025,0.315
					C393.296,136.476,393.37,136.6,393.482,136.652L393.482,136.652z"/>
			</g>
			<g>
				<path style="fill:#242021;" d="M385.622,106.305c1.488-1.387,2.816-2.973,4.196-4.467c1.387-1.501,2.772-3.004,4.145-4.518
					c1.294-1.428,2.558-2.891,3.891-4.282c0.569-0.594,1.155-1.183,1.874-1.595c0.431-0.248,0.8-0.328,1.277-0.414
					c0.279-0.05,0.471-0.091,0.665-0.305c0.08-0.088,0.102-0.216,0.042-0.322c-0.706-1.227-3.023,0.241-3.73,0.797
					c-1.569,1.232-2.851,2.885-4.199,4.345c-1.496,1.621-2.984,3.248-4.465,4.883c-1.51,1.668-3.132,3.285-4.514,5.061
					C384.359,106.06,385.061,106.827,385.622,106.305L385.622,106.305z"/>
			</g>
			<g>
				<path style="fill:#242021;" d="M402.982,91.503c0.163,0.057,0.326,0.114,0.49,0.171c0.162,0.057,0.324,0.124,0.491,0.166
					c0.206,0.052,0.409,0.099,0.622,0.11c0.081,0.004,0.164,0.015,0.245,0.008c0.13-0.01,0.239-0.063,0.353-0.121
					c0.179-0.09,0.204-0.318,0.126-0.481c-0.044-0.092-0.086-0.174-0.161-0.247c-0.08-0.078-0.188-0.138-0.281-0.202
					c-0.141-0.097-0.299-0.16-0.455-0.229c-0.353-0.156-0.733-0.259-1.099-0.381c-0.31-0.103-0.697,0.119-0.769,0.437
					C402.466,91.084,402.651,91.387,402.982,91.503L402.982,91.503z"/>
			</g>
			<g>
				<path style="fill:#242021;" d="M408.634,123.203c0.65-1.485,1.305-2.967,1.931-4.463c0.315-0.753,0.648-1.498,0.893-2.278
					c0.241-0.767,0.428-1.572,0.619-2.354c0.023-0.095-0.105-0.149-0.157-0.066c-0.431,0.681-0.878,1.375-1.266,2.081
					c-0.393,0.716-0.697,1.475-1.02,2.225c-0.642,1.488-1.254,2.989-1.871,4.488C407.56,123.331,408.418,123.698,408.634,123.203
					L408.634,123.203z"/>
			</g>
			<g>
				<path style="fill:#242021;" d="M414.142,111.747c0.053-0.242,0.124-0.487,0.152-0.733c0.012-0.106,0.022-0.212,0.033-0.317
					c0.005-0.052,0.015-0.106,0.017-0.159c0.002-0.059-0.016-0.12-0.029-0.178c-0.019-0.091-0.151-0.153-0.229-0.093
					c-0.046,0.035-0.096,0.067-0.135,0.108c-0.045,0.048-0.081,0.11-0.119,0.164c-0.064,0.091-0.132,0.181-0.194,0.274
					c-0.061,0.092-0.11,0.194-0.163,0.291c-0.054,0.098-0.107,0.195-0.161,0.293c-0.131,0.238-0.036,0.536,0.217,0.643
					C413.767,112.141,414.083,112.016,414.142,111.747L414.142,111.747z"/>
			</g>
			<g>
				<path style="fill:#242021;" d="M380.608,79.043c0.738,0.511,1.479,1.011,2.237,1.493c0.364,0.231,0.723,0.481,1.101,0.691
					c0.362,0.201,0.881,0.47,1.303,0.311c0.082-0.031,0.172-0.111,0.161-0.211c-0.054-0.462-0.465-0.778-0.823-1.026
					c-0.367-0.254-0.765-0.467-1.149-0.694c-0.785-0.463-1.578-0.902-2.38-1.333C380.547,78,380.141,78.72,380.608,79.043
					L380.608,79.043z"/>
			</g>
			<g>
				<path style="fill:#242021;" d="M390.714,84.763c-0.01-0.028-0.019-0.056-0.029-0.083c-0.02-0.048-0.041-0.096-0.061-0.144
					c-0.017-0.022-0.034-0.044-0.051-0.066c-0.055-0.071-0.079-0.106-0.171-0.156c-0.007-0.004-0.015-0.008-0.022-0.012
					c0.084,0.109,0.168,0.218,0.251,0.327c-0.007-0.023-0.015-0.046-0.022-0.068c-0.003-0.01-0.007-0.02-0.01-0.03
					c-0.008-0.027-0.019-0.048-0.031-0.076c-0.012-0.043-0.034-0.08-0.065-0.112c-0.012-0.021-0.027-0.04-0.044-0.056
					c-0.046-0.049-0.099-0.084-0.162-0.104c-0.06-0.032-0.125-0.046-0.194-0.043c-0.045,0.006-0.089,0.012-0.134,0.018
					c-0.085,0.024-0.159,0.067-0.222,0.129c-0.001,0.001-0.003,0.003-0.004,0.004c-0.026,0.034-0.053,0.069-0.08,0.103
					c-0.026,0.04-0.04,0.087-0.055,0.133c-0.004,0.011-0.007,0.023-0.011,0.034c-0.007,0.023-0.015,0.046-0.022,0.068
					c0.084-0.109,0.168-0.218,0.251-0.327c-0.007,0.004-0.014,0.007-0.02,0.011c-0.002,0.001-0.004,0.002-0.006,0.003
					c-0.04,0.031-0.081,0.062-0.121,0.093c-0.082,0.075-0.122,0.169-0.159,0.271c-0.01,0.028-0.019,0.055-0.029,0.083
					c-0.03,0.112-0.03,0.224,0,0.336c0.03,0.107,0.084,0.2,0.163,0.279c0.043,0.033,0.085,0.066,0.128,0.099
					c0.099,0.057,0.205,0.086,0.319,0.086c0.087,0.003,0.168-0.015,0.244-0.054c0.078-0.025,0.146-0.069,0.204-0.131
					c0.078-0.079,0.133-0.172,0.163-0.279C390.744,84.987,390.744,84.875,390.714,84.763L390.714,84.763z"/>
			</g>
		</g>
	</g>
	<g>
		<g>
			<g>
				<path style="fill:#FFFFFF;" d="M393.245,171.51c-2.53-10.04-7.38-19.78-15.47-26.46c-9.52-7.86-22.2-10.56-34.32-9.84
					c-19.19,1.14-36.87,11.14-51.57,22.92c-13.97,11.19-25.88,25.03-34.69,40.61c-0.1,0.17-0.19,0.34-0.28,0.52
					c-6.89-11.76-16.34-22.21-25.37-32.13c-12.5-13.71-26.58-27.43-45.11-32.1c-8.55-2.15-17.58-2.42-26.2-0.43
					c-7.69,1.78-14.79,5.5-21.06,10.27c-10.02,7.63-17.37,18.06-21.68,29.87c-0.14,0.39-0.29,0.79-0.42,1.19
					c-2.18,6.28-3.54,12.81-4.26,19.43c-0.63,5.77-0.79,11.61-0.58,17.38c0.2,5.8,0.76,11.59,1.61,17.35
					c1.12,7.61,2.75,15.17,4.75,22.59c3.31,12.25,7.67,24.23,13.03,35.72c2.551,5.463,5.324,10.827,8.268,16.097
					c7.491,11.456,16.067,22.163,25.338,32.229c10.321,11.206,21.431,21.639,32.96,31.59c11.45,9.883,23.408,19.109,35.258,28.498
					c5.921,4.691,11.994,9.459,18.358,13.754c15.84-12.854,31.188-26.464,45.988-40.478c13.53-12.8,26.5-26.21,38.45-40.49
					c1.95-2.33,3.87-4.68,5.76-7.06c9.65-12.11,18.53-24.83,26.28-38.24c8.27-14.28,15.56-29.45,20.48-45.23
					c0.21-0.67,0.41-1.33,0.61-2c3.03-10.18,5.03-20.69,5.95-31.27C396.325,194.39,396.045,182.66,393.245,171.51z"/>
				<path style="fill:#242021;" d="M395.325,205.8c-0.92,10.58-2.92,21.09-5.95,31.27c-91.57-12.04-184.44-18.97-275.53-6.98
					c-0.85-5.76-1.41-11.55-1.61-17.35c-0.45-12.81,0.84-25.91,5.26-38c4.31-11.81,11.66-22.24,21.68-29.87
					c6.27-4.77,13.37-8.49,21.06-10.27c8.62-1.99,17.65-1.72,26.2,0.43c18.53,4.67,32.61,18.39,45.11,32.1
					c9.03,9.92,18.48,20.37,25.37,32.13c0.09-0.18,0.18-0.35,0.28-0.52c8.81-15.58,20.72-29.42,34.69-40.61
					c14.7-11.78,32.38-21.78,51.57-22.92c12.12-0.72,24.8,1.98,34.32,9.84c8.09,6.68,12.94,16.42,15.47,26.46
					C396.045,182.66,396.325,194.39,395.325,205.8z"/>
				<path style="fill:#029155;" d="M155.378,325.431c3.183,3.851,6.468,7.62,9.853,11.296c10.321,11.206,21.431,21.639,32.96,31.59
					c11.45,9.883,23.408,19.109,35.258,28.498c5.921,4.691,11.994,9.459,18.358,13.754c15.84-12.854,31.188-26.464,45.988-40.478
					c13.53-12.8,26.5-26.21,38.45-40.49c1.95-2.33,3.87-4.68,5.76-7.06C279.888,317.721,217.314,318.696,155.378,325.431z"/>
				<path style="fill:#D31145;" d="M118.595,252.68c3.31,12.25,7.67,24.23,13.03,35.72c2.551,5.463,5.324,10.827,8.268,16.097
					c7.491,11.456,16.067,22.163,25.338,32.229c3.107,3.373,6.293,6.669,9.532,9.91c23.87-36.337,49.542-75.053,50.862-75.496
					c1.83-0.62-75.32-48.29-112.81-75.78c-0.63,5.77-0.79,11.61-0.58,17.38c0.2,5.8,0.76,11.59,1.61,17.35
					C114.965,237.7,116.595,245.26,118.595,252.68z"/>
			</g>
			<g>
				<path style="fill:#242021;" d="M252.54,409.537c3.787-1.292,6.889-3.598,9.851-6.234c3.396-3.023,6.706-6.147,10.066-9.211
					c7.022-6.402,13.926-12.937,20.885-19.407c1.997-1.857,3.995-3.714,5.993-5.569c1.875-1.741,4.072-3.457,5.181-5.821
					c0.127-0.271-0.092-0.711-0.441-0.574c-1.958,0.771-3.496,2.253-5.002,3.679c-1.739,1.648-3.479,3.295-5.219,4.942
					c-3.42,3.237-6.84,6.474-10.26,9.71c-6.772,6.408-13.504,12.856-20.255,19.286c-3.354,3.194-6.866,6.465-11.148,8.369
					C251.724,408.916,252.056,409.702,252.54,409.537L252.54,409.537z"/>
			</g>
			<g>
				<path style="fill:#242021;" d="M309.958,358.334c0.455-0.653,0.918-1.301,1.353-1.968c0.219-0.335,0.397-0.685,0.609-1.023
					c0.208-0.334,0.44-0.658,0.589-1.023c0.105-0.258-0.25-0.38-0.418-0.243c-0.304,0.247-0.546,0.577-0.804,0.872
					c-0.133,0.152-0.275,0.28-0.416,0.422c-0.129,0.13-0.24,0.286-0.358,0.427c-0.503,0.6-0.979,1.221-1.463,1.836
					c-0.213,0.27-0.24,0.632,0.059,0.863C309.396,358.718,309.76,358.618,309.958,358.334L309.958,358.334z"/>
			</g>
			<g>
				<path style="fill:#242021;" d="M330.703,335.025c10.486-10.566,19.623-22.479,27.918-34.822
					c8.353-12.429,15.784-25.493,22.205-39.022c1.821-3.838,3.56-7.715,5.215-11.628c1.625-3.842,3.316-7.69,4.342-11.744
					c0.164-0.648-0.793-1.106-1.114-0.47c-1.651,3.28-2.907,6.728-4.305,10.118c-1.425,3.457-2.92,6.885-4.478,10.284
					c-3.091,6.744-6.422,13.38-10.018,19.869c-7.193,12.978-15.361,25.406-24.377,37.189c-5.129,6.702-10.527,13.197-15.962,19.65
					C329.797,334.844,330.329,335.402,330.703,335.025L330.703,335.025z"/>
			</g>
			<g>
				<path style="fill:#242021;" d="M114.761,182.523c-5.282,23.921-3.737,49.396,2.746,72.938c0.918,3.333,1.947,6.633,3.087,9.897
					c1.064,3.046,1.975,6.699,4.055,9.217c0.341,0.413,1.147,0.087,1.094-0.453c-0.282-2.851-1.734-5.593-2.688-8.276
					c-1.007-2.832-1.933-5.693-2.79-8.573c-1.735-5.834-3.142-11.765-4.217-17.755c-2.146-11.956-2.992-24.184-2.543-36.323
					c0.254-6.851,0.898-13.727,1.814-20.518C115.367,182.32,114.844,182.149,114.761,182.523L114.761,182.523z"/>
			</g>
			<g>
				<path style="fill:#242021;" d="M127.747,281.336c0.442,1.027,0.908,2.044,1.4,3.048c0.242,0.493,0.501,0.976,0.768,1.457
					c0.282,0.506,0.582,0.964,1.065,1.294c0.213,0.145,0.549-0.045,0.529-0.303c-0.043-0.566-0.269-1.048-0.539-1.543
					c-0.271-0.498-0.536-1-0.807-1.497c-0.534-0.978-1.042-1.971-1.526-2.974c-0.121-0.251-0.479-0.318-0.705-0.185
					C127.667,280.785,127.636,281.079,127.747,281.336L127.747,281.336z"/>
			</g>
			<g>
				<path style="fill:#242021;" d="M165.714,336.441c9.484,14.246,21.6,26.626,35.211,36.963c1.918,1.457,3.869,2.867,5.852,4.234
					c1.949,1.343,3.933,2.827,6.205,3.566c0.598,0.194,0.973-0.587,0.585-1.005c-1.392-1.505-3.185-2.603-4.856-3.769
					c-1.744-1.217-3.464-2.469-5.165-3.745c-3.386-2.537-6.655-5.22-9.857-7.985c-6.391-5.52-12.283-11.542-17.897-17.845
					c-3.194-3.586-6.242-7.309-9.182-11.105C166.214,335.241,165.357,335.905,165.714,336.441L165.714,336.441z"/>
			</g>
		</g>
		<g>
			<path style="fill:#FFFFFF;" d="M165.167,144.226c-8.168,0.946-14.73,2.842-21.036,8.413c-5.496,4.855-9.592,11.723-6.179,18.966
				c0.417,0.885,1.823,1.482,2.753,1.12c10.277-3.999,15.02-15.865,25.634-19.844C170.594,151.286,170.485,143.61,165.167,144.226
				L165.167,144.226z"/>
		</g>
		<g>
			<path style="fill:#FFFFFF;" d="M127.6,189.488c-0.204,1.072-0.48,2.158-0.551,3.248c-0.067,1.041,0.067,2.066,0.164,3.101
				c0.073,0.776,0.94,0.975,1.398,0.379c0.638-0.832,1.316-1.637,1.809-2.567c0.509-0.96,0.851-2.028,1.248-3.04
				C132.656,188.087,128.115,186.791,127.6,189.488L127.6,189.488z"/>
		</g>
		<g>
			<path style="fill:#FFFFFF;" d="M289.546,362.36c4.197-2.462,8.227-5.264,11.774-8.615c3.062-2.893,6.954-6.011,8.229-10.155
				c0.24-0.78-0.551-1.558-1.326-1.326c-4.145,1.24-7.488,4.957-10.837,7.574c-3.645,2.847-7.115,5.915-10.566,8.99
				C284.89,360.545,287.37,363.636,289.546,362.36L289.546,362.36z"/>
		</g>
		<g>
			<path style="fill:#FFFFFF;" d="M321.456,330.526c0.319-1.237,0.911-2.459,1.111-3.716c0.154-0.966-0.727-1.748-1.653-1.27
				c-1.107,0.57-2.057,1.503-3.108,2.181c-1.46,0.942-1.663,3.006-0.251,4.096C318.906,332.861,321.016,332.233,321.456,330.526
				L321.456,330.526z"/>
		</g>
	</g>
</g>
</svg>
